<svg width="22" height="25" viewBox="0 0 22 25" fill="none" xmlns="http://www.w3.org/2000/svg">
<path d="M11.0148 13.3301L4.33621 19.9707C3.87461 20.4297 3.12818 20.4297 2.67148 19.9707L1.56166 18.8672C1.10005 18.4082 1.10005 17.666 1.56166 17.2119L6.29559 12.5049L1.56166 7.79785C1.10005 7.33887 1.10005 6.59668 1.56166 6.14258L2.66657 5.0293C3.12818 4.57031 3.87461 4.57031 4.3313 5.0293L11.0099 11.6699C11.4764 12.1289 11.4764 12.8711 11.0148 13.3301ZM20.4434 11.6699L13.7648 5.0293C13.3032 4.57031 12.5567 4.57031 12.1001 5.0293L10.9902 6.13281C10.5286 6.5918 10.5286 7.33398 10.9902 7.78809L15.7242 12.4951L10.9902 17.2021C10.5286 17.6611 10.5286 18.4033 10.9902 18.8574L12.1001 19.9609C12.5617 20.4199 13.3081 20.4199 13.7648 19.9609L20.4434 13.3203C20.905 12.8711 20.905 12.1289 20.4434 11.6699Z" fill="#00B8CA"/>
</svg>
