<svg width="512" height="512" viewBox="0 0 512 512" fill="none" xmlns="http://www.w3.org/2000/svg">
<path d="M119.542 267.2H98.0292C84.3052 267.2 73.1392 256.105 73.1392 242.468C73.1392 238.325 69.7822 234.968 65.6392 234.968C61.4962 234.968 58.1392 238.325 58.1392 242.468C58.1392 264.376 76.0342 282.2 98.0302 282.2H119.542C123.685 282.2 127.042 278.843 127.042 274.7C127.042 270.557 123.685 267.2 119.542 267.2Z" fill="#00B8CA"/>
<path d="M190.017 322.708H125.945C104.783 322.708 87.5659 339.855 87.5659 360.934C87.5659 365.077 90.9229 368.434 95.0659 368.434C99.2089 368.434 102.566 365.076 102.566 360.934C102.566 348.127 113.053 337.708 125.945 337.708H190.017C194.16 337.708 197.517 334.351 197.517 330.208C197.517 326.065 194.16 322.708 190.017 322.708Z" fill="#00B8CA"/>
<path d="M251.127 322.708H220.018C215.875 322.708 212.518 326.065 212.518 330.208C212.518 334.351 215.875 337.708 220.018 337.708H251.127C255.27 337.708 258.627 334.351 258.627 330.208C258.627 326.065 255.269 322.708 251.127 322.708Z" fill="#00B8CA"/>
<path d="M198.392 176.977C194.249 176.977 190.892 180.335 190.892 184.477C190.892 205.923 173.342 223.37 151.77 223.37C147.627 223.37 144.27 226.727 144.27 230.87C144.27 235.013 147.627 238.37 151.77 238.37C181.613 238.37 205.892 214.194 205.892 184.477C205.892 180.335 202.535 176.977 198.392 176.977Z" fill="#00B8CA"/>
<path d="M184.567 63.5958C166.651 62.4458 151.117 76.0288 149.955 93.8848C149.686 98.0188 152.819 101.587 156.952 101.857C157.118 101.868 157.283 101.873 157.447 101.873C161.367 101.873 164.665 98.8268 164.924 94.8598C165.548 85.2518 173.928 77.9548 183.603 78.5648C187.74 78.8418 191.303 75.6968 191.569 71.5628C191.836 67.4288 188.701 63.8628 184.567 63.5958Z" fill="#00B8CA"/>
<path d="M159.344 356.104C155.201 356.104 151.844 359.461 151.844 363.604C151.844 367.747 155.201 371.104 159.344 371.104C171.729 371.104 181.805 381.113 181.805 393.415C181.805 405.72 171.729 415.729 159.344 415.729C155.201 415.729 151.844 419.086 151.844 423.229C151.844 427.372 155.201 430.729 159.344 430.729C180 430.729 196.805 413.991 196.805 393.415C196.805 372.842 180 356.104 159.344 356.104Z" fill="#00B8CA"/>
<path d="M236.1 179.493C231.957 179.493 228.6 182.85 228.6 186.993C228.6 191.136 231.957 194.493 236.1 194.493C246.049 194.493 254.144 202.53 254.144 212.41C254.144 222.291 246.049 230.329 236.1 230.329C231.957 230.329 228.6 233.686 228.6 237.829C228.6 241.972 231.957 245.329 236.1 245.329C254.321 245.329 269.144 230.561 269.144 212.41C269.144 194.26 254.321 179.493 236.1 179.493Z" fill="#00B8CA"/>
<path d="M103.981 131.807C99.838 131.807 96.481 135.164 96.481 139.307C96.481 143.45 99.838 146.807 103.981 146.807C121.075 146.807 134.981 160.627 134.981 177.615C134.981 194.604 121.075 208.425 103.981 208.425C99.838 208.425 96.481 211.782 96.481 215.925C96.481 220.068 99.838 223.425 103.981 223.425C129.345 223.425 149.981 202.875 149.981 177.615C149.981 152.356 129.345 131.807 103.981 131.807Z" fill="#00B8CA"/>
<path d="M456.562 131.467C442.465 131.467 430.996 142.896 430.996 156.944C430.996 170.993 442.465 182.422 456.562 182.422C470.659 182.422 482.128 170.993 482.128 156.944C482.128 142.896 470.659 131.467 456.562 131.467ZM456.563 167.423C450.737 167.423 445.997 162.723 445.997 156.945C445.996 151.168 450.736 146.468 456.563 146.468C462.389 146.468 467.129 151.168 467.129 156.945C467.129 162.722 462.389 167.423 456.563 167.423Z" fill="#00B8CA"/>
<path d="M481.622 323.418C467.524 323.418 456.056 334.847 456.056 348.896C456.056 362.945 467.525 374.373 481.622 374.373C495.719 374.373 507.187 362.944 507.187 348.896C507.187 334.848 495.719 323.418 481.622 323.418ZM481.622 359.373C475.796 359.373 471.056 354.673 471.056 348.896C471.056 343.119 475.796 338.418 481.622 338.418C487.448 338.418 492.187 343.118 492.187 348.896C492.188 354.673 487.448 359.373 481.622 359.373Z" fill="#00B8CA"/>
<path d="M465.886 233.531C461.56 233.532 457.484 234.612 453.908 236.511L439.288 221.963C436.35 219.041 431.603 219.054 428.682 221.989C425.76 224.925 425.772 229.673 428.708 232.595L443.291 247.106C441.398 250.662 440.32 254.711 440.32 259.008C440.32 273.057 451.789 284.486 465.886 284.486C479.984 284.486 491.452 273.057 491.452 259.008C491.452 244.96 479.983 233.531 465.886 233.531ZM465.887 269.487C460.061 269.487 455.321 264.787 455.321 259.009C455.321 253.233 460.061 248.532 465.887 248.532C471.713 248.532 476.453 253.232 476.453 259.009C476.453 264.786 471.713 269.487 465.887 269.487Z" fill="#00B8CA"/>
<path d="M448.986 401.706C434.888 401.706 423.42 413.135 423.42 427.184C423.42 441.233 434.889 452.662 448.986 452.662C463.084 452.662 474.552 441.233 474.552 427.184C474.552 413.135 463.084 401.706 448.986 401.706ZM448.986 437.661C443.16 437.661 438.42 432.961 438.42 427.183C438.42 421.406 443.16 416.705 448.986 416.705C454.812 416.705 459.552 421.405 459.552 427.183C459.553 432.961 454.813 437.661 448.986 437.661Z" fill="#00B8CA"/>
<path d="M361.231 140.945C365.998 140.945 371.686 138.597 375.065 135.235L404.039 106.403C406.951 107.554 410.119 108.194 413.436 108.194C427.534 108.194 439.002 96.765 439.002 82.716C439.002 68.668 427.533 57.24 413.436 57.24C399.339 57.24 387.871 68.669 387.871 82.716C387.871 87.991 389.488 92.898 392.256 96.968L364.487 124.6C363.9 125.163 362.042 125.931 361.231 125.945H299.325V76.298H316.738C319.959 86.697 329.693 94.276 341.172 94.276C355.27 94.276 366.738 82.847 366.738 68.798C366.738 54.75 355.269 43.321 341.172 43.321C329.693 43.321 319.959 50.899 316.738 61.298H299.325V60.162C299.325 26.988 272.22 0 238.902 0C215.084 0 193.718 13.882 183.968 35.108C182.469 35.002 180.974 34.948 179.491 34.948C144.863 34.948 116.598 62.594 115.795 96.884C112.805 96.458 109.781 96.243 106.744 96.243C71.612 96.243 43.031 124.701 43.031 159.68C43.031 167.358 44.378 174.787 47.042 181.854C20.818 197.414 4.81299 225.21 4.81299 256C4.81299 272.532 9.52199 288.602 18.43 302.471C25.768 313.895 35.654 323.404 47.282 330.286C44.488 337.527 43.031 345.281 43.031 353.067C43.031 368.509 48.669 383.39 58.906 394.969C61.649 398.072 66.389 398.364 69.493 395.62C72.597 392.876 72.888 388.137 70.144 385.033C62.332 376.198 58.031 364.845 58.031 353.066C58.031 345.142 59.904 337.584 63.592 330.6C67.994 322.239 74.833 315.179 83.484 310.495C87.127 308.522 88.48 303.971 86.507 300.329C84.535 296.685 79.982 295.33 76.341 297.306C67.382 302.159 59.913 308.964 54.328 317.02C32.882 304.119 19.813 281.308 19.813 256C19.813 228.94 34.801 204.682 58.999 192.404C58.999 192.404 73.001 184.614 91.589 184.614C95.732 184.614 99.089 181.257 99.089 177.114C99.089 172.971 95.732 169.614 91.589 169.614C80.693 169.614 70.263 171.629 60.647 175.296C58.923 170.296 58.033 165.071 58.033 159.681C58.033 132.972 79.885 111.244 106.746 111.244C111.795 111.244 116.79 112.017 121.592 113.542C124.053 114.323 126.742 113.784 128.711 112.114C130.681 110.444 131.653 107.88 131.284 105.324C130.949 102.996 130.779 100.662 130.779 98.386C130.779 71.678 152.632 49.949 179.493 49.949C182.131 49.949 184.827 50.175 187.51 50.616C210.568 54.43 228.206 74.393 228.206 98.386C228.206 102.529 231.563 105.886 235.706 105.886C239.849 105.886 243.206 102.529 243.206 98.386C243.206 70.284 224.751 46.407 199.277 38.101C207.196 24.019 222.246 15 238.902 15C263.948 15 284.325 35.26 284.325 60.162V60.995H269.9C265.757 60.995 262.4 64.352 262.4 68.495C262.4 72.638 265.757 75.995 269.9 75.995H284.325V125.944H223.665C209.94 125.944 198.774 114.85 198.774 101.214C198.774 97.071 195.417 93.714 191.274 93.714C187.131 93.714 183.774 97.071 183.774 101.214C183.774 123.121 201.669 140.944 223.665 140.944H284.325V267.2H162.667C158.524 267.2 155.167 270.557 155.167 274.7C155.167 278.843 158.524 282.2 162.667 282.2H284.325V385.176H261.149C239.987 385.176 222.771 402.323 222.771 423.401C222.771 427.544 226.128 430.901 230.271 430.901C234.414 430.901 237.771 427.544 237.771 423.401C237.771 410.595 248.258 400.176 261.149 400.176H284.325V451.838C284.325 453.016 284.265 454.18 284.176 455.335H269.9C265.757 455.335 262.4 458.692 262.4 462.835C262.4 466.978 265.757 470.335 269.9 470.335H280.324C273.203 486.037 257.321 497 238.902 497C222.358 497 207.363 488.074 199.404 474.127C208.463 471.168 216.8 466.194 223.824 459.418C226.805 456.542 226.89 451.794 224.014 448.814C221.138 445.831 216.39 445.747 213.41 448.623C206.248 455.533 197.295 459.994 187.627 461.606C184.901 462.062 182.164 462.294 179.491 462.294C152.63 462.294 130.777 440.565 130.777 413.856C130.777 413.173 130.818 412.464 130.851 411.762C136.905 409.298 142.592 405.926 147.664 401.692C150.844 399.038 151.269 394.308 148.614 391.128C145.959 387.948 141.307 387.619 138.05 390.178C123 402 108.444 401.816 102.621 401.333C98.481 400.982 94.869 404.059 94.525 408.186C94.182 412.314 97.251 415.938 101.379 416.282C106.174 416.678 111.059 416.539 115.809 415.862C116.875 449.918 145.033 477.294 179.492 477.294C181.01 477.294 182.541 477.237 184.077 477.125C193.879 498.211 215.202 512 238.902 512C272.219 512 299.325 485.012 299.325 451.838V435.264H339.083C339.897 435.278 341.755 436.045 342.34 436.607L360.221 454.4C357.802 458.291 356.401 462.874 356.401 467.778C356.401 481.827 367.87 493.256 381.967 493.256C396.065 493.256 407.533 481.827 407.533 467.778C407.533 453.729 396.064 442.3 381.967 442.3C378.26 442.3 374.739 443.097 371.555 444.517L352.92 425.974C349.541 422.612 343.853 420.264 339.086 420.264H299.325V380.172H364.525C367.746 390.571 377.48 398.15 388.96 398.15C403.058 398.15 414.526 386.721 414.526 372.672C414.526 358.623 403.057 347.194 388.96 347.194C377.481 347.194 367.746 354.772 364.525 365.172H299.325V314.932H377.347C380.568 325.331 390.302 332.91 401.782 332.91C415.88 332.91 427.348 321.481 427.348 307.432C427.348 293.383 415.879 281.954 401.782 281.954C390.302 281.954 380.568 289.532 377.347 299.932H299.325V245.343H317.903C321.125 255.741 330.859 263.32 342.338 263.32C356.436 263.32 367.904 251.891 367.904 237.843C367.904 223.794 356.435 212.365 342.338 212.365C330.859 212.365 321.124 219.943 317.903 230.343H299.325V187.062H381.043C381.856 187.077 383.715 187.843 384.3 188.405L399.706 203.737C401.169 205.193 403.082 205.921 404.996 205.921C406.921 205.921 408.847 205.184 410.312 203.711C413.234 200.775 413.222 196.026 410.286 193.104L394.88 177.772C391.501 174.41 385.813 172.062 381.046 172.062H299.325V140.945H361.231ZM413.436 72.239C419.262 72.239 424.002 76.939 424.002 82.715C424.002 88.492 419.262 93.193 413.436 93.193C407.61 93.193 402.871 88.493 402.871 82.715C402.871 76.939 407.61 72.239 413.436 72.239ZM341.172 58.321C346.998 58.321 351.738 63.021 351.738 68.798C351.738 74.575 346.998 79.276 341.172 79.276C335.346 79.276 330.607 74.576 330.607 68.798C330.606 63.021 335.346 58.321 341.172 58.321ZM381.967 457.299C387.793 457.299 392.533 462 392.533 467.777C392.533 473.554 387.793 478.255 381.967 478.255C376.141 478.255 371.401 473.555 371.401 467.777C371.401 462 376.141 457.299 381.967 457.299ZM388.96 362.194C394.786 362.194 399.526 366.894 399.526 372.672C399.526 378.449 394.786 383.15 388.96 383.15C383.134 383.15 378.394 378.45 378.394 372.672C378.394 366.895 383.134 362.194 388.96 362.194ZM401.781 296.954C407.607 296.954 412.347 301.654 412.347 307.432C412.347 313.209 407.607 317.91 401.781 317.91C395.955 317.91 391.215 313.21 391.215 307.432C391.215 301.654 395.955 296.954 401.781 296.954ZM342.338 227.365C348.164 227.365 352.904 232.065 352.904 237.843C352.904 243.619 348.164 248.32 342.338 248.32C336.512 248.32 331.772 243.62 331.772 237.843C331.772 232.065 336.512 227.365 342.338 227.365Z" fill="#00B8CA"/>
</svg>
