<svg width="512" height="512" viewBox="0 0 512 512" fill="none" xmlns="http://www.w3.org/2000/svg">
<path d="M442.531 79.5234H502C507.523 79.5234 512 75.0469 512 69.5234V10C512 4.47656 507.523 0 502 0H442.531C437.008 0 432.531 4.47656 432.531 10V29.7617H295.734V10C295.734 4.47656 291.258 0 285.734 0H226.266C220.742 0 216.266 4.47656 216.266 10V29.7617H79.4688V10C79.4688 4.47656 74.9922 0 69.4688 0H10C4.47656 0 0 4.47656 0 10V69.5234C0 75.0469 4.47656 79.5234 10 79.5234H69.4688C74.9922 79.5234 79.4688 75.0469 79.4688 69.5234V49.7617H162.656C133.363 63.043 106.953 82.5508 85.4336 107.219C51.6914 145.898 32.1836 194.844 29.9297 246H10C4.47656 246 0 250.477 0 256V315.523C0 321.047 4.47656 325.523 10 325.523H69.4688C74.9922 325.523 79.4688 321.047 79.4688 315.523V256C79.4688 250.477 74.9922 246 69.4688 246H49.9531C54.5625 151.762 123.887 71.5156 216.266 53.4766V69.5273C216.266 75.0508 220.742 79.5273 226.266 79.5273H285.734C291.258 79.5273 295.734 75.0508 295.734 69.5273V53.4766C388.113 71.5156 457.438 151.762 462.047 246H442.531C437.008 246 432.531 250.477 432.531 256V315.523C432.531 321.047 437.008 325.523 442.531 325.523H502C507.523 325.523 512 321.047 512 315.523V256C512 250.477 507.523 246 502 246H482.07C479.816 194.844 460.309 145.898 426.566 107.219C405.047 82.5508 378.637 63.043 349.344 49.7617H432.531V69.5273C432.531 75.0469 437.008 79.5234 442.531 79.5234ZM59.4688 59.5234H20V20H59.4688V59.5234ZM59.4688 305.523H20V266H59.4688V305.523ZM492 305.523H452.531V266H492V305.523ZM275.734 59.5234H236.266V20H275.734V59.5234ZM452.531 20H492V59.5234H452.531V20Z" fill="#00B8CA"/>
<path d="M264.758 110.176C263 106.984 259.644 105 256 105C252.355 105 249 106.984 247.242 110.176L205.707 185.582C203.043 190.422 204.805 196.504 209.644 199.164C214.476 201.828 220.562 200.07 223.226 195.23L246 153.883V227.629C232.117 231.91 222 244.859 222 260.129C222 278.875 237.254 294.129 256 294.129C274.746 294.129 290 278.875 290 260.129C290 244.859 279.883 231.91 266 227.629V153.883L334.605 278.445C312.066 301.242 296.703 330.484 290.734 362H221.265C215.293 330.484 199.93 301.242 177.394 278.445L188.855 257.637C191.519 252.801 189.758 246.719 184.922 244.055C180.086 241.391 174 243.148 171.336 247.988L156.18 275.512C153.953 279.551 154.781 284.594 158.183 287.711C179.719 307.434 194.672 333.559 200.859 362H191.547C175.004 362 161.547 375.461 161.547 392C161.547 403.672 168.246 413.797 178 418.754V502C178 507.523 182.476 512 188 512C193.523 512 198 507.523 198 502V422H314V502C314 507.523 318.476 512 324 512C329.523 512 334 507.523 334 502V418.754C343.754 413.797 350.453 403.668 350.453 392C350.453 375.457 336.996 362 320.453 362H311.14C317.328 333.555 332.281 307.434 353.816 287.707C357.219 284.59 358.047 279.551 355.82 275.508L264.758 110.176ZM256 274.129C248.281 274.129 242 267.848 242 260.129C242 252.406 248.281 246.129 256 246.129C263.719 246.129 270 252.406 270 260.129C270 267.848 263.719 274.129 256 274.129ZM330.453 392C330.453 397.516 325.969 402 320.453 402H191.547C186.031 402 181.547 397.516 181.547 392C181.547 386.484 186.031 382 191.547 382H320.453C325.969 382 330.453 386.484 330.453 392Z" fill="#00B8CA"/>
<path d="M196.629 232.121C199.262 232.121 201.84 231.059 203.699 229.199C205.559 227.328 206.629 224.762 206.629 222.121C206.629 219.488 205.559 216.922 203.699 215.051C201.84 213.191 199.262 212.121 196.629 212.121C193.988 212.121 191.41 213.191 189.551 215.051C187.691 216.922 186.629 219.488 186.629 222.121C186.629 224.762 187.691 227.328 189.551 229.199C191.41 231.059 193.988 232.121 196.629 232.121Z" fill="#00B8CA"/>
</svg>
