<svg width="512" height="512" viewBox="0 0 512 512" fill="none" xmlns="http://www.w3.org/2000/svg">
<path d="M165.443 266.141C169.515 266.873 173.419 264.17 174.154 260.094L177.673 240.595L183.553 260.524C184.689 264.374 187.959 266.443 191.807 266.63C195.193 266.612 199.037 263.804 199.991 260.447L205.666 240.542L209.417 260.169C210.194 264.236 214.121 266.905 218.189 266.126C222.256 265.35 224.923 261.422 224.145 257.355L215.297 211.057C213.594 202.693 200.996 202.279 198.668 210.381L191.654 234.987L184.373 210.307C181.952 201.971 169.337 202.929 167.733 211.235L159.396 257.431C158.661 261.507 161.368 265.407 165.443 266.141Z" fill="#00B8CA"/>
<path d="M73.087 266.631C81.0311 266.631 88.6483 263.369 93.7761 257.253C96.4355 254.079 96.0186 249.35 92.8433 246.691C89.6701 244.032 84.9412 244.447 82.2808 247.623C73.008 257.404 56.4359 248.032 56.8658 235.416C56.6968 222.622 71.6553 214.671 82.1488 221.961C85.584 224.281 90.2419 223.376 92.5604 219.945C94.8778 216.514 93.976 211.853 90.5448 209.535C70.1967 195.521 41.6564 210.688 41.8693 235.416C41.8703 252.628 55.874 266.631 73.087 266.631Z" fill="#00B8CA"/>
<path d="M114.578 266.631C118.72 266.631 122.077 263.274 122.077 259.133V249.861L134.597 264.087C138.032 267.237 141.559 267.462 145.179 264.761C148.287 262.026 148.589 257.287 145.854 254.179L135.334 242.227C155.582 233.463 149.453 204.511 127.199 204.198H114.594C110.447 204.189 107.08 207.549 107.08 211.696V259.133C107.08 263.274 110.437 266.631 114.578 266.631ZM127.199 219.193C134.511 219.599 134.506 228.449 127.199 228.854C125.978 228.854 124.087 228.86 122.14 228.869C122.127 225.644 122.119 222.418 122.116 219.193H127.199Z" fill="#00B8CA"/>
<path d="M331.667 199.359V165.432C331.323 155.504 317.011 155.512 316.671 165.432V199.359C317.015 209.287 331.327 209.28 331.667 199.359Z" fill="#00B8CA"/>
<path d="M418.835 199.359V165.432C418.491 155.504 404.179 155.512 403.839 165.432V199.359C404.182 209.287 418.494 209.28 418.835 199.359Z" fill="#00B8CA"/>
<path d="M385.062 190.24V174.55C384.108 151.582 351.389 151.599 350.444 174.55V190.24C351.398 213.21 384.117 213.191 385.062 190.24ZM370.066 190.24C369.986 193.29 365.52 193.289 365.441 190.24V174.55C365.521 171.5 369.986 171.503 370.066 174.55V190.24Z" fill="#00B8CA"/>
<path d="M375.251 141.73V107.803C374.907 97.8742 360.595 97.8822 360.255 107.803V141.73C360.599 151.658 374.91 151.651 375.251 141.73Z" fill="#00B8CA"/>
<path d="M341.479 116.921C340.526 93.9522 307.806 93.9692 306.861 116.921V132.611C307.815 155.58 340.534 155.561 341.479 132.611V116.921ZM326.483 132.611C326.403 135.66 321.937 135.659 321.858 132.611V116.921C321.938 113.869 326.404 113.872 326.483 116.921V132.611Z" fill="#00B8CA"/>
<path d="M428.646 116.921C427.693 93.9522 394.973 93.9692 394.028 116.921V132.611C394.982 155.58 427.701 155.561 428.646 132.611V116.921ZM413.65 132.611C413.57 135.66 409.104 135.659 409.025 132.611V116.921C409.105 113.869 413.571 113.872 413.65 116.921V132.611Z" fill="#00B8CA"/>
<path d="M360.255 223.062V256.989C360.599 266.917 374.911 266.909 375.251 256.989V223.062C374.907 213.133 360.595 213.141 360.255 223.062Z" fill="#00B8CA"/>
<path d="M306.861 232.181V247.871C307.815 270.839 340.534 270.82 341.479 247.871V232.181C340.525 209.212 307.806 209.229 306.861 232.181ZM321.858 232.181C321.938 229.129 326.404 229.132 326.483 232.181V247.871C326.403 250.92 321.937 250.919 321.858 247.871V232.181Z" fill="#00B8CA"/>
<path d="M394.028 232.181V247.871C394.982 270.839 427.701 270.82 428.646 247.871V232.181C427.693 209.212 394.973 209.229 394.028 232.181ZM409.025 232.181C409.105 229.129 413.571 229.132 413.65 232.181V247.871C413.57 250.92 409.104 250.919 409.025 247.871V232.181Z" fill="#00B8CA"/>
<path d="M503.256 396.68C503.252 396.672 503.248 396.664 503.244 396.656C486.02 361.487 442.388 344.422 405.904 358.022V296.86H437.589C456.438 296.86 471.775 281.525 471.775 262.674V203.999C471.775 194.304 456.778 194.304 456.778 203.999V262.674C456.778 273.256 448.17 281.864 437.589 281.864H373.315C371.702 281.864 370.132 282.385 368.837 283.347L337.04 307.016V289.362C337.04 285.221 333.684 281.864 329.542 281.864H297.917C287.335 281.864 278.726 273.256 278.726 262.674V170.14C278.727 170.088 278.727 170.037 278.726 169.985V99.1488C278.726 88.5673 287.335 79.9593 297.917 79.9593H437.588C448.169 79.9593 456.777 88.5673 456.777 99.1488V164.038C456.777 173.733 471.774 173.733 471.774 164.038V99.1488C471.774 80.2983 456.437 64.9629 437.588 64.9629H297.918C279.067 64.9629 263.731 80.2983 263.731 99.1488V162.564H43.3218C19.4334 162.564 0 181.997 0 205.886V401.217C0 421.891 16.818 438.709 37.4911 438.709H54.987C64.6817 438.709 64.6817 423.712 54.987 423.712H37.4911C25.0881 423.712 14.9965 413.622 14.9965 401.217V375.691H377.545C364.647 388.161 355.957 404.956 353.839 423.712H97.218C87.5233 423.712 87.5233 438.709 97.218 438.709H159.263L145.489 496.94H118.972C114.83 496.94 111.474 500.297 111.474 504.438C111.474 508.579 114.83 511.936 118.972 511.936H286.932C291.074 511.936 294.43 508.579 294.43 504.438C294.43 500.297 291.074 496.94 286.932 496.94H260.415L246.641 438.709H353.559C354.338 449.187 357.155 459.235 361.958 468.651C375.583 495.351 402.654 511.936 432.607 511.936C490.924 512.662 530.383 448.23 503.256 396.68ZM404.57 446.938C404.567 446.932 404.563 446.925 404.56 446.919C393.804 426.453 409.48 400.915 432.608 401.201C444.49 401.201 455.233 407.789 460.646 418.394C471.423 438.863 455.745 464.416 432.608 464.131C420.726 464.131 409.982 457.542 404.57 446.938ZM486.103 397.007L470.067 405.174C462.866 395.327 452.136 388.749 440.106 386.804V368.821C458.881 370.995 475.63 381.258 486.103 397.007ZM14.9965 205.886C14.9965 190.266 27.7035 177.56 43.3218 177.56H263.731V262.674C263.731 281.525 279.067 296.86 297.918 296.86H322.045V321.944C322.045 327.981 329.121 331.606 334.021 327.959L375.8 296.86H390.908V360.695H14.9965V205.886ZM425.11 368.826V386.81C397.994 390.677 379.384 420.325 388.338 446.797L372.366 454.931L372.299 454.965C357.477 416.7 384.869 372.841 425.11 368.826ZM245.004 496.94H160.899L174.673 438.709H231.229L245.004 496.94ZM432.608 496.94C410.847 496.94 390.963 486.143 379.112 468.324L395.15 460.157C426.93 501.891 491.859 468.946 476.878 418.535L489.524 412.095L492.917 410.367C508.717 451.366 476.627 497.563 432.608 496.94Z" fill="#00B8CA"/>
<path d="M41.3351 139.454C45.4772 139.454 48.8334 136.097 48.8334 131.956V93.0721H78.2244V131.956C78.2244 141.651 93.2209 141.651 93.2209 131.956V85.5739C93.2209 81.4329 89.8647 78.0757 85.7226 78.0757H41.3351C37.1931 78.0757 33.8369 81.4329 33.8369 85.5739V131.956C33.8369 136.097 37.1931 139.454 41.3351 139.454Z" fill="#00B8CA"/>
<path d="M177.059 139.454C181.201 139.454 184.557 136.097 184.557 131.956V64.7001H213.948V131.955C213.948 141.65 228.945 141.65 228.945 131.955V57.2018C228.945 53.0608 225.588 49.7036 221.446 49.7036H177.059C172.917 49.7036 169.561 53.0608 169.561 57.2018V131.955C169.561 136.097 172.917 139.454 177.059 139.454Z" fill="#00B8CA"/>
<path d="M109.197 139.454C113.339 139.454 116.696 136.097 116.696 131.956V15.0536H146.087V131.955C146.087 141.65 161.083 141.65 161.083 131.955V7.55536C161.083 3.41434 157.727 0.0571289 153.585 0.0571289H109.197C105.055 0.0571289 101.699 3.41434 101.699 7.55536V131.955C101.699 136.097 105.055 139.454 109.197 139.454Z" fill="#00B8CA"/>
<path d="M225.071 285.14H49.6036C39.675 285.484 39.683 299.796 49.6036 300.136H225.071C235 299.792 234.992 285.481 225.071 285.14Z" fill="#00B8CA"/>
<path d="M144.833 317.641H49.6036C39.675 317.985 39.683 332.298 49.6036 332.638H144.833C154.762 332.294 154.755 317.981 144.833 317.641Z" fill="#00B8CA"/>
</svg>
