<svg width="512" height="512" viewBox="0 0 512 512" fill="none" xmlns="http://www.w3.org/2000/svg">
<g clip-path="url(#clip0_358_6)">
<path d="M447.824 317.766C454.277 297.848 457.554 277.074 457.554 255.906C457.554 234.816 454.3 214.117 447.886 194.262C461.992 188.965 474.816 180.484 485.464 169.207C503.867 149.727 513.578 124.242 512.812 97.457C511.226 42.1562 464.953 -1.53516 409.644 0.0429688C382.855 0.808594 357.972 11.9609 339.57 31.4453C330.277 41.2852 323.207 52.6562 318.578 64.9531C298.718 58.543 278.019 55.2891 256.921 55.2891C235.812 55.2891 215.097 58.5508 195.226 64.9688C180.894 27.043 144.214 0 101.332 0C46.0073 0 0.999512 45.0078 0.999512 100.328C0.999512 143.207 28.0464 179.883 65.9722 194.211C59.5503 214.086 56.2925 234.801 56.2925 255.906C56.2925 277.074 59.5698 297.848 66.0229 317.766C28.0698 332.082 0.999512 368.773 0.999512 411.672C0.999512 426.773 4.27295 441.293 10.73 454.824C12.5151 458.562 16.9917 460.148 20.73 458.363C24.4644 456.578 26.0503 452.102 24.269 448.363C18.7808 436.863 15.9995 424.52 15.9995 411.672C15.9995 364.625 54.2808 326.348 101.332 326.348C148.386 326.348 186.667 364.625 186.667 411.672C186.667 458.723 148.386 497 101.332 497C79.8706 497 59.3589 489.004 43.5776 474.484C40.5269 471.68 35.7808 471.879 32.98 474.926C30.1753 477.977 30.3706 482.719 33.4214 485.523C51.98 502.598 76.0972 512 101.332 512C144.277 512 181.003 484.875 195.289 446.863C215.136 453.27 235.832 456.523 256.921 456.523C278.015 456.523 298.714 453.27 318.562 446.867C332.847 484.879 369.574 512 412.519 512C467.843 512 512.851 466.992 512.851 411.672C512.851 368.773 485.781 332.078 447.824 317.766ZM350.476 41.7422C366.125 25.1719 387.292 15.6875 410.078 15.0352C410.906 15.0117 411.726 15 412.554 15C458.484 15 496.496 51.6836 497.816 97.8828C498.468 120.664 490.21 142.336 474.562 158.91C458.914 175.48 437.746 184.965 414.96 185.617C414.132 185.641 413.308 185.652 412.484 185.652C366.554 185.652 328.542 148.969 327.222 102.77C326.566 79.9883 334.828 58.3125 350.476 41.7422ZM314.355 432.461C295.875 438.469 276.589 441.523 256.921 441.523C237.261 441.523 217.976 438.469 199.496 432.461C200.914 425.75 201.667 418.797 201.667 411.672C201.667 356.352 156.656 311.348 101.332 311.348C94.1636 311.348 87.1714 312.109 80.4253 313.543C74.3667 294.996 71.2925 275.641 71.2925 255.906C71.2925 236.234 74.3511 216.941 80.3706 198.441C87.1323 199.887 94.144 200.652 101.332 200.652C118.519 200.652 135.476 196.23 150.378 187.867C153.988 185.84 155.273 181.27 153.246 177.656C151.218 174.043 146.648 172.762 143.035 174.789C130.371 181.895 115.949 185.652 101.332 185.652C54.2769 185.652 15.9995 147.375 15.9995 100.324C15.9995 53.2773 54.2808 15 101.332 15C148.386 15 186.667 53.2773 186.667 100.328C186.667 120.012 179.804 139.215 167.343 154.406C164.714 157.605 165.183 162.332 168.386 164.961C171.585 167.586 176.312 167.121 178.941 163.918C193.593 146.055 201.667 123.469 201.667 100.324C201.667 93.1406 200.898 86.1289 199.457 79.3672C217.953 73.3477 237.25 70.2891 256.921 70.2891C276.589 70.2891 295.878 73.3438 314.367 79.3555C312.73 87.0977 311.996 95.0859 312.226 103.199C313.785 157.523 358.472 200.656 412.48 200.652C413.445 200.652 414.417 200.641 415.39 200.609C421.539 200.434 427.585 199.703 433.48 198.457C439.496 216.949 442.554 236.242 442.554 255.906C442.554 275.641 439.476 294.996 433.421 313.543C426.675 312.105 419.683 311.348 412.519 311.348C357.195 311.348 312.187 356.352 312.187 411.672C312.187 418.801 312.937 425.754 314.355 432.461ZM412.519 497C365.464 497 327.187 458.723 327.187 411.676C327.187 364.625 365.464 326.348 412.519 326.348C459.574 326.348 497.851 364.625 497.851 411.676C497.851 458.723 459.574 497 412.519 497Z" fill="#00B8CA"/>
<path d="M152.402 56.0546C149.816 54.2968 146.414 54.3241 143.859 56.1288C141.304 57.9296 138.57 59.4335 135.695 60.6249C125.39 52.5624 110.457 52.6561 100.226 61.5507C94.9096 66.1757 91.5854 72.5702 90.812 79.4765C79.8081 77.8397 69.8628 71.7811 63.3393 62.4921C61.7846 60.2811 59.1596 59.0819 56.476 59.3397C53.7846 59.6015 51.4448 61.289 50.3471 63.7577C50.1323 64.2421 45.0854 75.7733 45.7299 89.8866C46.2221 100.687 50.0854 114.609 64.1753 125.359C59.101 126.996 53.7417 127.754 48.4018 127.539C44.9253 127.402 41.8198 129.664 40.8823 133.008C39.9448 136.351 41.4253 139.902 44.4604 141.59C56.226 148.125 68.8315 151.398 81.1479 151.398C92.9799 151.398 104.542 148.375 114.832 142.324C127.734 134.734 137.109 123.113 142.199 108.922C142.359 108.562 142.492 108.187 142.597 107.801C145.214 100.094 146.585 91.6522 146.585 82.6991C146.585 82.3085 146.574 81.9139 146.558 81.5233C150.839 76.4765 153.894 70.496 155.472 64.0311C156.207 60.9921 154.988 57.8124 152.402 56.0546ZM131.355 80.3593C131.503 81.1405 131.582 81.9491 131.582 82.7225C131.582 90.0741 130.488 96.8827 128.406 103.035C128.292 103.316 128.199 103.609 128.121 103.91C124.226 114.808 117.136 123.562 107.226 129.394C98.1557 134.734 87.7456 137.008 77.1362 136.238C79.5659 135.035 81.9135 133.668 84.1596 132.144C86.4096 130.613 87.6596 127.984 87.4174 125.269C87.1753 122.555 85.4799 120.187 82.9917 119.082C68.9878 112.859 61.4995 102.961 60.7378 89.6679C60.5815 86.9452 60.7182 84.3319 61.0112 81.9374C71.3276 90.5585 84.5424 95.2616 98.3354 94.9061C102.402 94.8007 105.644 91.4765 105.644 87.41V82.8593C105.644 82.828 105.644 82.7929 105.644 82.7577C105.593 78.9647 107.203 75.3593 110.07 72.871C115.429 68.2108 123.578 68.7772 128.238 74.1366C129.175 75.2108 130.371 75.9725 131.675 76.3749C131.218 77.6327 131.097 79.0038 131.355 80.3593Z" fill="#00B8CA"/>
<path d="M387.84 106.242H398.473V150.965C398.473 155.105 401.832 158.465 405.973 158.465C410.117 158.465 413.473 155.105 413.473 150.965V106.242H425.055C429.195 106.242 432.555 102.883 432.555 98.7422C432.555 94.6016 429.195 91.2422 425.055 91.2422H413.473V70.2578C413.473 63.0547 419.336 57.1914 426.543 57.1914H436.254C440.395 57.1914 443.754 53.832 443.754 49.6914C443.754 45.5469 440.395 42.1914 436.254 42.1914H426.543C411.066 42.1914 398.473 54.7813 398.473 70.2578V91.2422H387.84C383.699 91.2422 380.34 94.6016 380.34 98.7422C380.34 102.883 383.699 106.242 387.84 106.242Z" fill="#00B8CA"/>
<path d="M84.3159 450.461C86.1011 450.461 87.8862 450 89.4761 449.083L140.527 419.594C143.71 417.758 145.687 414.333 145.687 410.657C145.687 406.985 143.71 403.559 140.527 401.723L89.4761 372.235C86.2964 370.395 82.3433 370.395 79.1597 372.235C75.9761 374.071 73.9956 377.497 73.9956 381.172V440.145C73.9956 443.821 75.9761 447.247 79.1597 449.083C80.7495 450.004 82.5308 450.461 84.3159 450.461ZM88.9956 389.282L126.011 410.661L88.9956 432.04V389.282Z" fill="#00B8CA"/>
<path d="M445.109 358.555H379.93C368.609 358.555 359.398 367.766 359.398 379.09V444.258C359.398 455.583 368.609 464.793 379.93 464.793H445.109C456.43 464.793 465.641 455.583 465.641 444.258V379.09C465.641 367.766 456.43 358.555 445.109 358.555ZM450.641 444.258C450.641 447.313 448.16 449.793 445.109 449.793H379.93C376.879 449.793 374.398 447.313 374.398 444.258V379.09C374.398 376.04 376.879 373.555 379.93 373.555H445.109C448.16 373.555 450.641 376.04 450.641 379.09V444.258Z" fill="#00B8CA"/>
<path d="M412.52 389.004C400.02 389.004 389.848 399.176 389.848 411.676C389.848 424.176 400.02 434.344 412.52 434.344C425.02 434.344 435.191 424.176 435.191 411.676C435.191 399.176 425.02 389.004 412.52 389.004ZM412.52 419.344C408.289 419.344 404.848 415.903 404.848 411.676C404.848 407.446 408.289 404.004 412.52 404.004C416.75 404.004 420.191 407.446 420.191 411.676C420.191 415.903 416.75 419.344 412.52 419.344Z" fill="#00B8CA"/>
<path d="M311.203 178.094C307.059 178.094 303.703 181.453 303.703 185.594V188.957C293.133 195.188 282.02 200.566 270.594 204.969C261.445 208.492 251.996 211.422 242.438 213.715C240.969 212.586 239.141 211.902 237.148 211.902H202.809C194.512 211.902 187.766 218.652 187.766 226.945V266.332C187.766 274.629 194.512 281.375 202.809 281.375H209.672L212.273 331.383C212.48 335.387 215.793 338.492 219.758 338.492C219.887 338.492 220.02 338.488 220.152 338.48C224.289 338.266 227.469 334.738 227.254 330.602L224.691 281.375H237.148C239.137 281.375 240.969 280.695 242.434 279.566C248.52 281.035 254.574 282.762 260.492 284.727C264.426 286.027 268.668 283.898 269.973 279.969C271.277 276.035 269.145 271.789 265.215 270.488C258.859 268.379 252.359 266.523 245.82 264.949V228.336C256.062 225.883 266.184 222.738 275.984 218.965C285.461 215.312 294.742 211.035 303.699 206.191V287.105C300.402 285.324 297.07 283.625 293.715 282.012C289.98 280.215 285.5 281.785 283.707 285.52C281.91 289.254 283.48 293.734 287.215 295.531C292.801 298.219 298.324 301.18 303.699 304.336V307.684C303.699 311.828 307.059 315.184 311.199 315.184C315.34 315.184 318.699 311.828 318.699 307.684V185.594C318.703 181.453 315.344 178.094 311.203 178.094ZM230.824 266.371L202.766 266.332L202.809 226.902H230.824V266.371Z" fill="#00B8CA"/>
</g>
<defs>
<clipPath id="clip0_358_6">
<rect width="512" height="512" fill="white"/>
</clipPath>
</defs>
</svg>
