<svg width="512" height="512" viewBox="0 0 512 512" fill="none" xmlns="http://www.w3.org/2000/svg">
<path d="M421.521 242.133L293.521 92.8001C289.777 88.7398 284.605 86.2894 279.092 85.9643C273.579 85.6391 268.155 87.4646 263.96 91.0567C259.766 94.6487 257.127 99.7276 256.6 105.225C256.073 110.722 257.699 116.21 261.135 120.533L377.229 256L261.135 391.467C257.699 395.79 256.073 401.278 256.6 406.775C257.127 412.273 259.766 417.351 263.96 420.944C268.155 424.536 273.579 426.361 279.092 426.036C284.605 425.711 289.777 423.26 293.521 419.2L421.521 269.867C424.833 266.006 426.654 261.087 426.654 256C426.654 250.913 424.833 245.994 421.521 242.133Z" fill="#00B8CA"/>
<path d="M122.865 92.8001C119.131 88.703 113.949 86.2201 108.416 85.8773C102.884 85.5345 97.4348 87.3587 93.2237 90.9636C89.0127 94.5685 86.3701 99.6709 85.8558 105.19C85.3414 110.71 86.9956 116.213 90.468 120.533L206.573 256L90.468 391.467C86.9956 395.788 85.3414 401.291 85.8558 406.81C86.3701 412.329 89.0127 417.432 93.2237 421.037C97.4348 424.641 102.884 426.466 108.416 426.123C113.949 425.78 119.131 423.297 122.865 419.2L250.865 269.867C254.177 266.003 255.998 261.081 255.998 255.992C255.998 250.902 254.177 245.981 250.865 242.116L122.865 92.8001Z" fill="#00B8CA"/>
</svg>
