<svg width="26" height="27" viewBox="0 0 26 27" fill="none" xmlns="http://www.w3.org/2000/svg">
<g clip-path="url(#clip0_82_18)">
<path d="M25.9745 7.93807C25.9136 6.50346 25.6902 5.51718 25.3702 4.66255C25.0401 3.75538 24.5321 2.94319 23.8667 2.26802C23.2165 1.58234 22.4293 1.04954 21.5658 0.712053C20.7381 0.379721 19.7933 0.147726 18.4118 0.0844739C17.02 0.0158646 16.5782 0 13.0482 0C9.5182 0 9.07636 0.0158646 7.68972 0.079117C6.30824 0.142369 5.35849 0.37457 4.53571 0.706696C3.66194 1.04954 2.87984 1.57698 2.22967 2.26802C1.56939 2.94319 1.05652 3.76074 0.731335 4.6574C0.411311 5.51718 0.187909 6.4981 0.126999 7.93272C0.0609313 9.37805 0.0456543 9.83688 0.0456543 13.5026C0.0456543 17.1684 0.0609313 17.6272 0.121841 19.0672C0.182751 20.5018 0.406351 21.4881 0.726375 22.3427C1.05652 23.2499 1.56939 24.0621 2.22967 24.7373C2.87984 25.4229 3.6671 25.9557 4.53055 26.2932C5.35849 26.6256 6.30308 26.8576 7.68476 26.9208C9.0712 26.9843 9.51324 26.9999 13.0432 26.9999C16.5732 26.9999 17.0151 26.9843 18.4017 26.9208C19.7832 26.8576 20.7329 26.6256 21.5557 26.2932C23.303 25.5917 24.6845 24.1571 25.3601 22.3427C25.6799 21.483 25.9035 20.5018 25.9644 19.0672C26.0253 17.6272 26.0406 17.1684 26.0406 13.5026C26.0406 9.83688 26.0354 9.37805 25.9745 7.93807ZM23.6332 18.9617C23.5772 20.2803 23.3639 20.9924 23.1862 21.4671C22.7493 22.6433 21.8503 23.5769 20.7177 24.0306C20.2605 24.2152 19.5699 24.4367 18.3051 24.4945C16.9337 24.558 16.5224 24.5737 13.0533 24.5737C9.58427 24.5737 9.16782 24.558 7.80142 24.4945C6.53164 24.4367 5.84596 24.2152 5.38884 24.0306C4.82518 23.8142 4.31211 23.4714 3.89566 23.0231C3.46394 22.5852 3.1338 22.0578 2.92547 21.4724C2.7477 20.9977 2.53442 20.2803 2.47867 18.9671C2.41756 17.543 2.40248 17.1157 2.40248 13.5131C2.40248 9.91064 2.41756 9.47818 2.47867 8.05943C2.53442 6.74081 2.7477 6.02876 2.92547 5.55406C3.1338 4.96851 3.46394 4.43591 3.90082 4.00324C4.32223 3.55491 4.83014 3.21207 5.394 2.99594C5.85112 2.81133 6.54196 2.58985 7.80658 2.53174C9.17794 2.46849 9.58943 2.45263 13.0583 2.45263C16.5325 2.45263 16.9438 2.46849 18.3102 2.53174C19.58 2.58985 20.2657 2.81133 20.7228 2.99594C21.2865 3.21207 21.7995 3.55491 22.216 4.00324C22.6477 4.44106 22.9779 4.96851 23.1862 5.55406C23.3639 6.02876 23.5772 6.74596 23.6332 8.05943C23.6941 9.48353 23.7094 9.91064 23.7094 13.5131C23.7094 17.1157 23.6941 17.5376 23.6332 18.9617Z" fill="white"/>
<path d="M13.0482 6.56641C9.36086 6.56641 6.36914 9.67299 6.36914 13.5023C6.36914 17.3317 9.36086 20.4383 13.0482 20.4383C16.7357 20.4383 19.7272 17.3317 19.7272 13.5023C19.7272 9.67299 16.7357 6.56641 13.0482 6.56641ZM13.0482 18.0015C10.656 18.0015 8.71565 15.9867 8.71565 13.5023C8.71565 11.018 10.656 9.00317 13.0482 9.00317C15.4405 9.00317 17.3807 11.018 17.3807 13.5023C17.3807 15.9867 15.4405 18.0015 13.0482 18.0015Z" fill="white"/>
<path d="M21.5508 6.29207C21.5508 7.18626 20.8526 7.9113 19.9914 7.9113C19.1303 7.9113 18.4321 7.18626 18.4321 6.29207C18.4321 5.39768 19.1303 4.67285 19.9914 4.67285C20.8526 4.67285 21.5508 5.39768 21.5508 6.29207Z" fill="white"/>
</g>
<defs>
<clipPath id="clip0_82_18">
<rect width="26" height="27" fill="white"/>
</clipPath>
</defs>
</svg>
