<svg width="26" height="27" viewBox="0 0 26 27" fill="none" xmlns="http://www.w3.org/2000/svg">
<g clip-path="url(#clip0_82_22)">
<path d="M25.9936 26.9998V26.9986H26.0001V17.0964C26.0001 12.2521 24.9959 8.52051 19.5424 8.52051C16.9207 8.52051 15.1614 10.0145 14.4431 11.4309H14.3673V8.97276H9.19653V26.9986H14.5807V18.0729C14.5807 15.7228 15.0097 13.4503 17.8123 13.4503C20.5737 13.4503 20.6149 16.1323 20.6149 18.2236V26.9998H25.9936Z" fill="white"/>
<path d="M0.428955 8.97412H5.81962V27H0.428955V8.97412Z" fill="white"/>
<path d="M3.12217 0C1.39858 0 0 1.45238 0 3.24225C0 5.03213 1.39858 6.51488 3.12217 6.51488C4.84575 6.51488 6.24433 5.03213 6.24433 3.24225C6.24325 1.45238 4.84467 0 3.12217 0V0Z" fill="white"/>
</g>
<defs>
<clipPath id="clip0_82_22">
<rect width="26" height="27" fill="white"/>
</clipPath>
</defs>
</svg>
