<svg width="246" height="33" viewBox="0 0 246 33" fill="none" xmlns="http://www.w3.org/2000/svg">
<path d="M12.3555 18.8955H4.68555L4.64453 14.6709H11.084C12.2188 14.6709 13.1484 14.5273 13.873 14.2402C14.5977 13.9395 15.1377 13.5088 15.4932 12.9482C15.8623 12.374 16.0469 11.6768 16.0469 10.8564C16.0469 9.92676 15.8691 9.1748 15.5137 8.60059C15.1719 8.02637 14.6318 7.60938 13.8936 7.34961C13.1689 7.08984 12.2324 6.95996 11.084 6.95996H6.81836V32H0.666016V2.14062H11.084C12.8203 2.14062 14.3721 2.30469 15.7393 2.63281C17.1201 2.96094 18.2891 3.45996 19.2461 4.12988C20.2031 4.7998 20.9346 5.64746 21.4404 6.67285C21.9463 7.68457 22.1992 8.8877 22.1992 10.2822C22.1992 11.5127 21.9189 12.6475 21.3584 13.6865C20.8115 14.7256 19.9434 15.5732 18.7539 16.2295C17.5781 16.8857 16.04 17.248 14.1396 17.3164L12.3555 18.8955ZM12.0889 32H3.00391L5.40332 27.2012H12.0889C13.1689 27.2012 14.0508 27.0303 14.7344 26.6885C15.418 26.333 15.9238 25.8545 16.252 25.2529C16.5801 24.6514 16.7441 23.9609 16.7441 23.1816C16.7441 22.3066 16.5938 21.5479 16.293 20.9053C16.0059 20.2627 15.541 19.7705 14.8984 19.4287C14.2559 19.0732 13.4082 18.8955 12.3555 18.8955H6.42871L6.46973 14.6709H13.8525L15.2676 16.332C17.0859 16.3047 18.5488 16.626 19.6562 17.2959C20.7773 17.9521 21.5908 18.8066 22.0967 19.8594C22.6162 20.9121 22.876 22.04 22.876 23.2432C22.876 25.1572 22.459 26.7705 21.625 28.083C20.791 29.3818 19.5674 30.3594 17.9541 31.0156C16.3545 31.6719 14.3994 32 12.0889 32ZM35.0355 0.5V32H29.1087V0.5H35.0355ZM54.7213 26.6885V9.81055H60.6276V32H55.07L54.7213 26.6885ZM55.3776 22.1357L57.1207 22.0947C57.1207 23.5713 56.9498 24.9453 56.608 26.2168C56.2663 27.4746 55.7536 28.5684 55.07 29.498C54.3864 30.4141 53.525 31.1318 52.486 31.6514C51.4469 32.1572 50.2233 32.4102 48.8151 32.4102C47.735 32.4102 46.737 32.2598 45.8209 31.959C44.9186 31.6445 44.1393 31.1592 43.483 30.5029C42.8405 29.833 42.3346 28.9785 41.9655 27.9395C41.61 26.8867 41.4323 25.6221 41.4323 24.1455V9.81055H47.3385V24.1865C47.3385 24.8428 47.4137 25.3965 47.5641 25.8477C47.7282 26.2988 47.9538 26.668 48.2409 26.9551C48.528 27.2422 48.8629 27.4473 49.2457 27.5703C49.6422 27.6934 50.0797 27.7549 50.5582 27.7549C51.775 27.7549 52.7321 27.5088 53.4293 27.0166C54.1403 26.5244 54.6393 25.8545 54.9264 25.0068C55.2272 24.1455 55.3776 23.1885 55.3776 22.1357Z" fill="#00B8CA"/>
<path d="M79.3291 7.24707L71.208 32H64.666L75.7607 2.14062H79.9238L79.3291 7.24707ZM86.0761 32L77.9345 7.24707L77.2783 2.14062H81.4824L92.6386 32H86.0761ZM85.707 20.8848V25.7041H69.9365V20.8848H85.707ZM101.968 14.4043V32H96.0413V9.81055H101.599L101.968 14.4043ZM101.148 20.126H99.5071C99.5071 18.5811 99.6917 17.1592 100.061 15.8604C100.444 14.5479 100.997 13.4131 101.722 12.4561C102.46 11.4854 103.369 10.7334 104.449 10.2002C105.53 9.66699 106.781 9.40039 108.202 9.40039C109.187 9.40039 110.089 9.55078 110.909 9.85156C111.73 10.1387 112.434 10.5967 113.022 11.2256C113.623 11.8408 114.088 12.6475 114.416 13.6455C114.744 14.6299 114.908 15.8125 114.908 17.1934V32H109.002V17.8496C109.002 16.8379 108.866 16.0586 108.592 15.5117C108.319 14.9648 107.929 14.582 107.423 14.3633C106.931 14.1445 106.336 14.0352 105.639 14.0352C104.873 14.0352 104.203 14.1924 103.629 14.5068C103.069 14.8213 102.604 15.2588 102.235 15.8193C101.866 16.3662 101.592 17.0088 101.414 17.7471C101.237 18.4854 101.148 19.2783 101.148 20.126ZM114.355 19.4492L112.242 19.7158C112.242 18.2666 112.42 16.9199 112.776 15.6758C113.145 14.4316 113.685 13.3379 114.396 12.3945C115.12 11.4512 116.016 10.7197 117.082 10.2002C118.149 9.66699 119.379 9.40039 120.774 9.40039C121.84 9.40039 122.811 9.55762 123.686 9.87207C124.561 10.1729 125.306 10.6582 125.921 11.3281C126.55 11.9844 127.029 12.8457 127.357 13.9121C127.699 14.9785 127.869 16.2842 127.869 17.8291V32H121.943V17.8291C121.943 16.8037 121.806 16.0244 121.533 15.4912C121.273 14.9443 120.89 14.5684 120.384 14.3633C119.892 14.1445 119.304 14.0352 118.62 14.0352C117.909 14.0352 117.287 14.1787 116.754 14.4658C116.221 14.7393 115.777 15.1221 115.421 15.6143C115.066 16.1064 114.799 16.6807 114.621 17.3369C114.444 17.9795 114.355 18.6836 114.355 19.4492ZM134.123 0.5H140.029V26.9141L139.434 32H134.123V0.5ZM154.077 20.6797V21.1104C154.077 22.7646 153.899 24.2822 153.544 25.6631C153.202 27.0439 152.669 28.2402 151.944 29.252C151.219 30.25 150.317 31.0293 149.237 31.5898C148.171 32.1367 146.913 32.4102 145.463 32.4102C144.11 32.4102 142.934 32.1367 141.936 31.5898C140.952 31.043 140.125 30.2705 139.455 29.2725C138.785 28.2744 138.245 27.1055 137.835 25.7656C137.424 24.4258 137.117 22.9629 136.912 21.377V20.4336C137.117 18.8477 137.424 17.3848 137.835 16.0449C138.245 14.7051 138.785 13.5361 139.455 12.5381C140.125 11.54 140.952 10.7676 141.936 10.2207C142.921 9.67383 144.083 9.40039 145.422 9.40039C146.885 9.40039 148.157 9.68066 149.237 10.2412C150.331 10.7881 151.233 11.5674 151.944 12.5791C152.669 13.5771 153.202 14.7666 153.544 16.1475C153.899 17.5146 154.077 19.0254 154.077 20.6797ZM148.171 21.1104V20.6797C148.171 19.7773 148.102 18.9297 147.965 18.1367C147.842 17.3301 147.624 16.626 147.309 16.0244C146.995 15.4092 146.564 14.9238 146.017 14.5684C145.484 14.2129 144.794 14.0352 143.946 14.0352C143.139 14.0352 142.456 14.1719 141.895 14.4453C141.335 14.7188 140.87 15.1016 140.501 15.5938C140.145 16.0859 139.879 16.6738 139.701 17.3574C139.523 18.0273 139.414 18.7656 139.373 19.5723V22.2588C139.414 23.3389 139.591 24.2959 139.906 25.1299C140.234 25.9502 140.726 26.5996 141.382 27.0781C142.052 27.543 142.921 27.7754 143.987 27.7754C144.821 27.7754 145.511 27.6113 146.058 27.2832C146.605 26.9551 147.029 26.4902 147.33 25.8887C147.644 25.2871 147.863 24.583 147.986 23.7764C148.109 22.9561 148.171 22.0674 148.171 21.1104ZM165.662 9.81055V32H159.735V9.81055H165.662ZM159.366 4.02734C159.366 3.16602 159.667 2.45508 160.268 1.89453C160.87 1.33398 161.677 1.05371 162.688 1.05371C163.686 1.05371 164.486 1.33398 165.088 1.89453C165.703 2.45508 166.011 3.16602 166.011 4.02734C166.011 4.88867 165.703 5.59961 165.088 6.16016C164.486 6.7207 163.686 7.00098 162.688 7.00098C161.677 7.00098 160.87 6.7207 160.268 6.16016C159.667 5.59961 159.366 4.88867 159.366 4.02734ZM183.092 9.81055V13.9941H170.172V9.81055H183.092ZM173.371 4.33496H179.278V25.3145C179.278 25.957 179.36 26.4492 179.524 26.791C179.701 27.1328 179.961 27.3721 180.303 27.5088C180.645 27.6318 181.075 27.6934 181.595 27.6934C181.964 27.6934 182.292 27.6797 182.579 27.6523C182.88 27.6113 183.133 27.5703 183.338 27.5293L183.359 31.877C182.853 32.041 182.306 32.1709 181.718 32.2666C181.13 32.3623 180.481 32.4102 179.77 32.4102C178.471 32.4102 177.336 32.1982 176.365 31.7744C175.408 31.3369 174.67 30.6396 174.151 29.6826C173.631 28.7256 173.371 27.4678 173.371 25.9092V4.33496ZM194.37 9.81055V32H188.443V9.81055H194.37ZM188.074 4.02734C188.074 3.16602 188.375 2.45508 188.976 1.89453C189.578 1.33398 190.384 1.05371 191.396 1.05371C192.394 1.05371 193.194 1.33398 193.795 1.89453C194.411 2.45508 194.718 3.16602 194.718 4.02734C194.718 4.88867 194.411 5.59961 193.795 6.16016C193.194 6.7207 192.394 7.00098 191.396 7.00098C190.384 7.00098 189.578 6.7207 188.976 6.16016C188.375 5.59961 188.074 4.88867 188.074 4.02734ZM199.987 21.1309V20.7002C199.987 19.0732 200.22 17.5762 200.684 16.209C201.149 14.8281 201.826 13.6318 202.715 12.6201C203.603 11.6084 204.697 10.8223 205.996 10.2617C207.295 9.6875 208.785 9.40039 210.467 9.40039C212.148 9.40039 213.645 9.6875 214.958 10.2617C216.27 10.8223 217.371 11.6084 218.26 12.6201C219.162 13.6318 219.846 14.8281 220.31 16.209C220.775 17.5762 221.008 19.0732 221.008 20.7002V21.1309C221.008 22.7441 220.775 24.2412 220.31 25.6221C219.846 26.9893 219.162 28.1855 218.26 29.2109C217.371 30.2227 216.277 31.0088 214.978 31.5693C213.68 32.1299 212.189 32.4102 210.508 32.4102C208.826 32.4102 207.329 32.1299 206.016 31.5693C204.718 31.0088 203.617 30.2227 202.715 29.2109C201.826 28.1855 201.149 26.9893 200.684 25.6221C200.22 24.2412 199.987 22.7441 199.987 21.1309ZM205.893 20.7002V21.1309C205.893 22.0605 205.975 22.9287 206.14 23.7354C206.304 24.542 206.563 25.2529 206.919 25.8682C207.288 26.4697 207.766 26.9414 208.354 27.2832C208.942 27.625 209.66 27.7959 210.508 27.7959C211.328 27.7959 212.032 27.625 212.62 27.2832C213.208 26.9414 213.68 26.4697 214.035 25.8682C214.391 25.2529 214.65 24.542 214.814 23.7354C214.992 22.9287 215.081 22.0605 215.081 21.1309V20.7002C215.081 19.7979 214.992 18.9502 214.814 18.1572C214.65 17.3506 214.384 16.6396 214.015 16.0244C213.659 15.3955 213.187 14.9033 212.599 14.5479C212.012 14.1924 211.301 14.0146 210.467 14.0146C209.633 14.0146 208.922 14.1924 208.334 14.5479C207.76 14.9033 207.288 15.3955 206.919 16.0244C206.563 16.6396 206.304 17.3506 206.14 18.1572C205.975 18.9502 205.893 19.7979 205.893 20.7002ZM232.101 14.5479V32H226.195V9.81055H231.732L232.101 14.5479ZM231.239 20.126H229.64C229.64 18.4854 229.852 17.0088 230.276 15.6963C230.699 14.3701 231.294 13.2422 232.06 12.3125C232.825 11.3691 233.735 10.6514 234.787 10.1592C235.854 9.65332 237.043 9.40039 238.356 9.40039C239.395 9.40039 240.345 9.55078 241.206 9.85156C242.068 10.1523 242.806 10.6309 243.421 11.2871C244.05 11.9434 244.529 12.8115 244.857 13.8916C245.198 14.9717 245.369 16.291 245.369 17.8496V32H239.422V17.8291C239.422 16.8447 239.285 16.0791 239.012 15.5322C238.738 14.9854 238.335 14.6025 237.802 14.3838C237.282 14.1514 236.64 14.0352 235.874 14.0352C235.081 14.0352 234.391 14.1924 233.803 14.5068C233.229 14.8213 232.75 15.2588 232.367 15.8193C231.998 16.3662 231.718 17.0088 231.527 17.7471C231.335 18.4854 231.239 19.2783 231.239 20.126Z" fill="black"/>
</svg>
