<svg width="512" height="512" viewBox="0 0 512 512" fill="none" xmlns="http://www.w3.org/2000/svg">
<path d="M207.646 58.3381H245.914C250.073 58.3381 253.444 54.9668 253.444 50.8087C253.444 46.6506 250.073 43.2793 245.914 43.2793H207.646C203.488 43.2793 200.117 46.6506 200.117 50.8087C200.117 54.9668 203.488 58.3381 207.646 58.3381Z" fill="#00B8CA"/>
<path d="M173.514 463.687H241.775C245.933 463.687 249.304 460.316 249.304 456.158C249.304 452 245.933 448.628 241.775 448.628H173.514C169.356 448.628 165.984 452 165.984 456.158C165.984 460.316 169.356 463.687 173.514 463.687Z" fill="#00B8CA"/>
<path d="M76.4586 388.776C80.6167 388.776 83.988 385.404 83.988 381.246V86.588H331.301V125.32C331.301 129.478 334.672 132.849 338.83 132.849C342.988 132.849 346.359 129.478 346.359 125.32C346.363 116.261 346.348 153.108 346.393 45.0255C346.393 28.5413 332.913 15.0586 316.37 15.0586H316.351H98.9182H98.9016C83.1627 15.0586 68.9292 28.0043 68.9292 45.0476V381.246C68.9292 385.404 72.3006 388.776 76.4586 388.776ZM316.351 30.1174C324.306 30.1174 331.301 36.6301 331.301 45.0476V71.5292H83.9931V45.0255C83.9931 36.8137 90.7189 30.1174 98.9182 30.1174H316.351Z" fill="#00B8CA"/>
<path d="M254.109 204.772C257.038 207.678 261.81 207.696 264.756 204.72L296.223 172.959C299.131 170.025 299.131 165.297 296.223 162.363L264.756 130.602C261.83 127.647 257.065 127.632 254.109 130.551C251.153 133.477 251.131 138.246 254.058 141.198L280.275 167.661L254.058 194.125C251.131 197.077 251.153 201.845 254.109 204.772Z" fill="#00B8CA"/>
<path d="M161.176 130.551C158.223 127.618 153.451 127.64 150.529 130.603L119.065 162.364C116.157 165.298 116.157 170.026 119.065 172.96L150.529 204.721C153.453 207.674 158.218 207.701 161.176 204.772C164.132 201.846 164.154 197.077 161.227 194.125L135.014 167.662L161.227 141.199C164.154 138.246 164.132 133.478 161.176 130.551Z" fill="#00B8CA"/>
<path d="M219.782 109.276L175.587 220.489C174.051 224.353 175.94 228.732 179.804 230.265C183.647 231.799 188.038 229.93 189.58 226.048L233.775 114.835C235.312 110.971 233.422 106.592 229.558 105.059C225.679 103.504 221.315 105.412 219.782 109.276Z" fill="#00B8CA"/>
<path d="M338.864 248.771C316.803 248.771 298.883 266.691 298.883 288.753C298.883 311.021 317.04 328.734 338.864 328.734C360.593 328.734 378.77 311.058 378.77 288.753C378.77 266.691 360.85 248.771 338.864 248.771ZM346.393 312.47V283.783C346.393 279.642 343.005 276.254 338.864 276.254C334.648 276.254 331.335 279.642 331.335 283.783V312.546C321.245 309.384 313.942 299.896 313.942 288.753C313.942 275.049 325.085 263.83 338.864 263.83C352.568 263.83 363.711 275.049 363.711 288.753C363.711 299.896 356.408 309.308 346.393 312.47Z" fill="#00B8CA"/>
<path d="M436.37 264.96L417.847 262.851C416.417 258.485 414.61 254.193 412.426 250.052L423.268 234.692C425.452 231.755 425.076 227.614 422.515 225.054L400.906 203.52C398.195 200.809 393.904 200.508 390.892 202.918L376.36 214.588C372.219 212.48 367.927 210.748 363.485 209.393L360.398 190.795C359.795 187.181 356.633 184.546 352.944 184.546H322.45C318.61 184.546 315.372 187.407 314.92 191.247L312.887 209.845C308.445 211.275 304.228 213.082 300.163 215.191L284.727 204.273C281.715 202.164 277.65 202.466 275.089 205.101L253.555 226.635C250.845 229.346 250.619 233.638 253.028 236.649L264.624 251.256C262.515 255.398 260.784 259.689 259.429 264.132L240.906 267.219C237.292 267.897 234.581 270.983 234.581 274.673V305.167C234.581 309.007 237.518 312.17 241.282 312.621L259.805 314.729C261.235 319.172 263.118 323.464 265.226 327.529L254.384 342.814C252.275 345.826 252.577 349.891 255.212 352.527L276.746 374.061C279.457 376.772 283.748 376.998 286.76 374.588L301.367 362.993C305.509 365.026 309.725 366.758 314.167 368.113L317.254 386.71C317.856 390.4 321.019 393.035 324.708 393.035H331.334V409.675H76.4635C72.3224 409.675 68.9341 413.063 68.9341 417.205C68.9341 418.371 68.9341 468.867 68.9341 466.974C68.9341 483.463 82.412 496.941 98.9014 496.941H316.351C332.915 496.941 346.393 483.463 346.393 466.974C346.393 463.293 346.393 389.392 346.393 393.035H355.202C359.042 393.035 362.28 390.174 362.732 386.334L364.84 367.737C369.207 366.306 373.499 364.499 377.565 362.391L392.925 373.308C395.937 375.416 400.003 375.04 402.638 372.48L424.097 350.87C426.807 348.16 427.033 343.868 424.624 340.932L413.028 326.325C415.137 322.108 416.868 317.817 418.224 313.449L436.746 310.287C440.36 309.685 443.071 306.523 443.071 302.908V272.414C443.071 268.574 440.209 265.336 436.37 264.96ZM331.334 466.974C331.334 475.181 324.633 481.882 316.351 481.882H98.9015C90.6942 481.882 83.993 475.181 83.993 466.974C83.993 465.357 83.993 423.961 83.993 424.734H331.334V466.974H331.334ZM428.012 296.508L410.996 299.369C407.984 299.896 405.65 302.08 404.897 305.092C403.391 311.416 400.906 317.515 397.593 323.313C396.012 325.948 396.238 329.336 398.196 331.746L408.662 344.998L396.464 357.346L382.309 347.256C379.899 345.525 376.586 345.449 374.026 347.031C368.53 350.419 362.506 352.979 356.106 354.56C353.019 355.313 350.76 357.948 350.384 361.035L348.501 377.977C342.158 377.977 337.38 377.977 331.033 377.977L328.172 360.885C327.72 357.948 325.461 355.539 322.525 354.861C316.2 353.28 310.101 350.795 304.454 347.483C301.744 345.901 298.356 346.127 295.946 348.085L282.619 358.626L270.346 346.353L280.285 332.424C281.886 330.155 282.171 326.808 280.586 323.991C277.198 318.494 274.562 312.395 272.906 305.92C272.153 302.908 269.593 300.649 266.506 300.348L249.64 298.391V281.073L266.657 278.212C269.668 277.685 272.078 275.426 272.755 272.489C274.261 266.09 276.746 259.991 280.134 254.419C281.715 251.708 281.565 248.32 279.607 245.835L268.991 232.508L281.264 220.235L295.344 230.25C297.753 231.981 301.066 232.132 303.626 230.551C309.123 227.162 315.221 224.602 321.697 222.946C324.708 222.193 326.892 219.633 327.268 216.546L329.151 199.605H346.619L349.48 216.621C350.007 219.633 352.191 222.042 355.127 222.72C361.527 224.226 367.626 226.71 373.273 230.099C375.984 231.68 379.372 231.454 381.781 229.496L395.033 218.88L407.306 231.228L397.367 245.233C395.787 247.47 395.463 250.74 397.066 253.591C400.53 259.238 403.089 265.336 404.671 271.586C405.423 274.597 407.984 276.857 411.146 277.233L428.012 279.115V296.508H428.012Z" fill="#00B8CA"/>
</svg>
