<svg width="150" height="139" viewBox="0 0 150 139" fill="none" xmlns="http://www.w3.org/2000/svg">
<path d="M86.9974 9.04053L86.9375 35.7819L86.8775 62.5233L84.121 56.3154V56.2995L80.5455 115.831C84.0611 123.726 85.9387 127.944 85.9587 127.96C85.9787 127.976 87.9761 128.071 90.3931 128.167C97.7039 128.453 106.772 129.074 113.664 129.759C115.262 129.918 116.62 129.997 116.72 129.934C116.82 129.87 116.84 102.651 116.82 69.4314L116.76 9.04053H86.9974Z" fill="url(#paint0_linear_78_90)"/>
<path d="M33.1582 8.96025V69.415C33.1582 102.667 33.1982 129.902 33.2581 129.949C33.318 129.997 35.8947 129.79 39.0108 129.52C42.1269 129.249 46.4215 128.899 48.5588 128.755C51.8347 128.533 61.6623 128.039 62.7809 128.023C63.1204 128.023 63.1404 126.67 63.1803 102.412L63.2403 76.8007L65.6173 82.149C65.9768 82.9767 66.0967 83.2314 66.4562 84.0432L70.0317 24.5276C69.2727 22.8244 69.6722 23.7158 68.8132 21.7739C65.8969 15.1999 63.42 9.6447 63.3202 9.39002L63.1204 8.94434H33.1582V8.96025Z" fill="url(#paint1_linear_78_90)"/>
<path d="M33.1582 8.96025L63.2205 76.8481V76.8162L65.5975 82.1645C78.8009 111.946 85.892 127.927 85.9319 127.959C85.9519 127.975 87.9494 128.07 90.3664 128.166C97.6772 128.452 106.746 129.073 113.637 129.758C115.215 129.917 116.593 129.996 116.673 129.933L86.8708 62.5065V62.5224L84.1142 56.3146C81.4176 50.25 79.6199 46.1911 68.7735 21.7738C65.8571 15.1999 63.3803 9.6447 63.2804 9.39002L63.0806 8.94434H48.1194L33.1582 8.96025Z" fill="#E30A17"/>
<defs>
<linearGradient id="paint0_linear_78_90" x1="130.243" y1="99.4487" x2="83.8537" y2="121.449" gradientUnits="userSpaceOnUse">
<stop stop-color="#B20610"/>
<stop offset="0.255959" stop-color="#B20610"/>
<stop offset="1" stop-color="#590004"/>
</linearGradient>
<linearGradient id="paint1_linear_78_90" x1="18.7128" y1="35.469" x2="68.9073" y2="11.9394" gradientUnits="userSpaceOnUse">
<stop stop-color="#B20610"/>
<stop offset="0.255959" stop-color="#B20610"/>
<stop offset="1" stop-color="#590004"/>
</linearGradient>
</defs>
</svg>
