<svg width="150" height="139" viewBox="0 0 150 139" fill="none" xmlns="http://www.w3.org/2000/svg">
<path d="M116.477 41.7462C117.938 32.9255 116.477 27.0451 111.364 21.617C105.764 15.5103 95.5371 13.0225 82.3887 13.0225H44.6477C41.9693 13.0225 39.7779 14.8318 39.2909 17.3197L23.464 110.05C23.2206 111.859 24.6815 113.443 26.6294 113.443H50.0045L48.3 122.942C48.0566 124.525 49.274 125.882 51.2219 125.882H70.9446C73.3795 125.882 75.3274 124.299 75.5709 122.263L79.7103 98.2891C79.9538 96.2535 82.1452 94.6703 84.3366 94.6703H87.2585C106.251 94.6703 121.347 87.4329 125.73 66.6251C127.434 58.0306 126.704 50.5669 121.834 45.5911C120.373 44.0079 118.669 42.8771 116.477 41.7462Z" fill="#009CDE"/>
<path d="M116.477 41.7462C117.938 32.9255 116.477 27.0451 111.364 21.617C105.764 15.5103 95.5371 13.0225 82.3887 13.0225H44.6477C41.9693 13.0225 39.7779 14.8318 39.2909 17.3197L23.464 110.05C23.2206 111.859 24.6815 113.443 26.6294 113.443H50.0045L55.6047 79.9692C56.0917 77.4813 58.2831 75.6719 60.9615 75.6719H72.1621C94.0762 75.6719 111.12 67.5298 115.99 43.5556C116.234 43.1033 116.234 42.4247 116.477 41.7462Z" fill="#012169"/>
<path d="M62.179 41.9724C62.4225 40.3892 64.6139 38.3537 66.8053 38.3537H96.5111C99.9199 38.3537 103.329 38.5798 106.251 39.0322C108.929 39.4845 113.799 40.6154 116.234 41.9724C117.695 33.1517 116.234 27.2713 111.12 21.8431C105.764 15.5103 95.5371 13.0225 82.3887 13.0225H44.6477C41.9693 13.0225 39.7779 14.8318 39.2909 17.3197L23.464 110.05C23.2206 111.859 24.6815 113.443 26.6294 113.443H50.0045L62.179 41.9724Z" fill="#003087"/>
</svg>
