<svg width="150" height="150" viewBox="0 0 150 150" fill="none" xmlns="http://www.w3.org/2000/svg">
<circle cx="75" cy="75" r="65.625" fill="#FFFA37"/>
<path fill-rule="evenodd" clip-rule="evenodd" d="M98.5572 38.3696C94.0315 32.6662 86.5653 28.125 75.0551 28.125C65.1989 28.2221 45.4865 33.6771 45.4865 54.7208C45.4865 57.7942 45.7297 61.9101 45.9423 64.9412C45.6918 64.8684 45.3838 64.7322 44.8957 64.4982L44.8279 64.4656C43.9648 64.0512 42.6524 63.4211 40.8272 63.4211C38.9834 63.4211 37.2005 64.1434 35.877 65.2142C34.5614 66.2787 33.4375 67.9148 33.4375 69.8932C33.4375 72.3674 34.83 74.0102 36.4583 75.0634C37.9046 75.9989 39.7284 76.5964 41.172 77.0694L41.3148 77.1161C42.8601 77.623 43.9926 78.0094 44.7735 78.4962C45.3814 78.875 45.4736 79.1147 45.485 79.3424C45.4771 79.3748 45.4586 79.4447 45.4181 79.5583C45.3348 79.7924 45.1961 80.1089 44.9935 80.5046C44.5894 81.2941 44 82.2646 43.299 83.2998C41.8846 85.3881 40.1586 87.5297 38.8693 88.77C37.5976 89.9934 35.5107 91.5138 33.3289 92.7239C32.2469 93.324 31.1888 93.8212 30.2422 94.1628C29.2651 94.5154 28.5491 94.6498 28.1066 94.6498C27.7564 94.6498 27.4532 94.7217 27.3209 94.7549C27.135 94.8015 26.9425 94.8628 26.7522 94.9343C26.3746 95.0763 25.9245 95.2891 25.4787 95.589C24.627 96.1622 23.4375 97.318 23.4375 99.1413C23.4375 100.093 23.6609 100.899 24.0471 101.598C24.3852 102.21 24.8197 102.674 25.0698 102.941L25.1069 102.981L25.1762 103.055C26.5516 104.535 28.8285 105.565 31.0388 106.271C32.9381 106.878 35.0615 107.331 37.1307 107.602C37.1599 107.735 37.1905 107.879 37.2239 108.037L37.2347 108.087C37.365 108.702 37.5375 109.516 37.7916 110.266C38.0314 110.974 38.4656 112.021 39.3545 112.766C40.4867 113.716 41.9676 113.812 42.9338 113.808C43.971 113.804 45.1819 113.658 46.331 113.519L46.4288 113.507C48.0457 113.312 49.7371 113.111 51.489 113.111C54.686 113.111 56.7351 114.447 59.9504 116.643L59.9721 116.657C61.0857 117.418 62.3327 118.269 63.75 119.107C68.4947 121.911 72.3496 121.887 74.5346 121.873C74.6787 121.872 74.8155 121.871 74.9449 121.871C75.0742 121.871 75.2117 121.872 75.3569 121.873C77.5453 121.887 81.5028 121.912 86.25 119.107C87.6673 118.269 88.9142 117.418 90.0279 116.657L90.0496 116.643C93.2649 114.447 95.314 113.111 98.511 113.111C100.263 113.111 101.954 113.312 103.571 113.507L103.669 113.519C104.818 113.658 106.029 113.804 107.066 113.808C108.032 113.812 109.513 113.716 110.645 112.766C111.534 112.021 111.969 110.974 112.208 110.266C112.462 109.516 112.635 108.702 112.765 108.088L112.776 108.037C112.81 107.879 112.84 107.735 112.869 107.602C114.938 107.331 117.062 106.878 118.961 106.271C121.172 105.565 123.449 104.535 124.824 103.055L124.893 102.981L124.93 102.941C125.18 102.674 125.615 102.21 125.953 101.598C126.339 100.899 126.562 100.093 126.562 99.1413C126.562 97.318 125.373 96.1622 124.521 95.589C124.076 95.2891 123.625 95.0763 123.248 94.9343C123.057 94.8628 122.865 94.8015 122.679 94.7549C122.547 94.7217 122.244 94.6498 121.893 94.6498C121.451 94.6498 120.735 94.5154 119.758 94.1628C118.811 93.8212 117.753 93.324 116.671 92.7239C114.489 91.5138 112.402 89.9934 111.131 88.77C109.841 87.5297 108.115 85.3881 106.701 83.2998C106 82.2646 105.411 81.2941 105.006 80.5046C104.804 80.1089 104.665 79.7924 104.582 79.5583C104.541 79.4447 104.523 79.3748 104.515 79.3424C104.526 79.1147 104.619 78.875 105.226 78.4961C106.007 78.0094 107.14 77.623 108.685 77.1161L108.828 77.0694C110.272 76.5964 112.095 75.9989 113.542 75.0634C115.17 74.0102 116.562 72.3674 116.562 69.8932C116.562 67.9148 115.439 66.2787 114.123 65.2142C112.799 64.1434 111.017 63.4211 109.173 63.4211C107.348 63.4211 106.035 64.0512 105.172 64.4656L105.104 64.4981C104.616 64.7322 104.308 64.8684 104.058 64.9412C104.27 61.91 104.514 57.7941 104.514 54.7208C104.514 50.5486 102.997 43.9643 98.5572 38.3696ZM55.2339 41.1222C51.4788 45.8226 50.1924 51.4039 50.1924 54.7208C50.1924 57.7963 50.4529 62.0687 50.6727 65.1322C50.7457 66.1497 50.5371 67.3357 49.6486 68.2772C48.7492 69.2302 47.5256 69.5395 46.4325 69.5395C44.8542 69.5395 43.6538 68.9621 42.8859 68.5927L42.7967 68.5498C41.9399 68.1391 41.4895 67.948 40.8272 67.948C40.2248 67.948 39.4892 68.2069 38.906 68.6787C38.3148 69.1571 38.1434 69.6253 38.1434 69.8932C38.1434 70.4386 38.3446 70.8284 39.0841 71.3067C39.9575 71.8716 41.202 72.2963 42.8334 72.8314L42.9754 72.878C44.3302 73.3218 46.0083 73.8716 47.3325 74.697C48.819 75.6236 50.1924 77.1128 50.1924 79.4068C50.1924 80.0082 50.0261 80.5871 49.87 81.0254C49.7006 81.5011 49.4717 82.0036 49.2152 82.5047C48.7011 83.5088 48.006 84.6427 47.2418 85.771C45.7258 88.0095 43.7986 90.4302 42.1969 91.971C40.5776 93.5287 38.1423 95.2797 35.6793 96.6457C34.4389 97.3337 33.1438 97.9507 31.8951 98.4013C30.7772 98.8047 29.5725 99.1207 28.4168 99.17C28.3879 99.1821 28.3561 99.1966 28.3228 99.2134C28.2695 99.2402 28.2197 99.2692 28.1762 99.2985L28.154 99.3139C28.1583 99.345 28.1633 99.3681 28.1675 99.3843C28.1767 99.4205 28.1877 99.4463 28.2025 99.4731C28.2478 99.5551 28.3192 99.6465 28.6083 99.9562L28.6841 100.038C29.2049 100.598 30.4883 101.325 32.5226 101.975C34.46 102.594 36.7511 103.042 38.9157 103.247C39.9987 103.35 40.6229 104.026 40.8871 104.391C41.159 104.766 41.3146 105.163 41.4054 105.426C41.5813 105.935 41.7141 106.562 41.8188 107.056L41.8347 107.131C41.9778 107.805 42.1028 108.382 42.266 108.864C42.3237 109.034 42.3769 109.163 42.4227 109.259C42.526 109.271 42.6843 109.282 42.9137 109.281C43.909 109.277 44.9055 109.129 45.8916 109.01C47.4693 108.82 49.4218 108.584 51.489 108.584C56.2833 108.584 59.4469 110.746 62.5029 112.834L62.6745 112.951C63.8054 113.723 64.9387 114.497 66.2132 115.25C69.8049 117.372 72.5377 117.357 74.5343 117.346C74.6748 117.345 74.8116 117.344 74.9449 117.344C75.077 117.344 75.213 117.345 75.3528 117.346C77.3715 117.356 80.1959 117.372 83.7868 115.25C85.0613 114.497 86.1946 113.723 87.3255 112.951L87.4971 112.834C90.5531 110.746 93.7167 108.584 98.511 108.584C100.578 108.584 102.531 108.82 104.108 109.01L104.156 109.015C105.432 109.169 106.365 109.278 107.086 109.281C107.316 109.282 107.474 109.271 107.577 109.259C107.623 109.163 107.676 109.034 107.734 108.864C107.897 108.382 108.022 107.805 108.165 107.131L108.181 107.056C108.286 106.562 108.419 105.935 108.595 105.426C108.685 105.163 108.841 104.766 109.113 104.391C109.377 104.026 110.001 103.35 111.084 103.247C113.249 103.042 115.54 102.594 117.477 101.975C119.512 101.325 120.795 100.598 121.316 100.038L121.392 99.9562C121.681 99.6466 121.752 99.5551 121.798 99.4731C121.812 99.4463 121.823 99.4205 121.833 99.3843C121.837 99.3681 121.842 99.345 121.846 99.3138L121.824 99.2985C121.78 99.2692 121.73 99.2402 121.677 99.2134C121.644 99.1966 121.612 99.1821 121.583 99.17C120.428 99.1207 119.223 98.8047 118.105 98.4013C116.856 97.9507 115.561 97.3337 114.321 96.6457C111.858 95.2797 109.422 93.5287 107.803 91.971C106.201 90.4302 104.274 88.0095 102.758 85.771C101.994 84.6427 101.299 83.5088 100.785 82.5047C100.528 82.0036 100.299 81.5011 100.13 81.0254C99.9739 80.5871 99.8076 80.0082 99.8076 79.4068C99.8076 77.1128 101.181 75.6236 102.667 74.697C103.992 73.8716 105.67 73.3218 107.025 72.878L107.167 72.8314C108.798 72.2963 110.042 71.8716 110.916 71.3067C111.655 70.8284 111.857 70.4386 111.857 69.8932C111.857 69.6253 111.685 69.1571 111.094 68.6787C110.511 68.2069 109.775 67.948 109.173 67.948C108.511 67.948 108.06 68.1391 107.203 68.5498L107.114 68.5927C106.346 68.9621 105.146 69.5395 103.567 69.5395C102.474 69.5395 101.251 69.2302 100.351 68.2772C99.4629 67.3357 99.2542 66.1497 99.3273 65.1322C99.5471 62.0687 99.8076 57.7963 99.8076 54.7208C99.8076 51.3953 98.5438 45.8134 94.8166 41.1164C91.1756 36.528 85.0891 32.6519 75.0551 32.6519C65.0201 32.6519 58.9032 36.5291 55.2339 41.1222Z" fill="black"/>
<path fill-rule="evenodd" clip-rule="evenodd" d="M55.234 41.1221C51.479 45.8225 50.1925 51.4038 50.1925 54.7207C50.1925 57.7962 50.453 62.0686 50.6728 65.1322C50.7458 66.1496 50.5372 67.3356 49.6487 68.2771C48.7493 69.2301 47.5257 69.5394 46.4326 69.5394C44.8543 69.5394 43.6539 68.962 42.886 68.5926L42.7968 68.5497C41.94 68.139 41.4896 67.9479 40.8273 67.9479C40.2249 67.9479 39.4893 68.2068 38.9061 68.6787C38.3149 69.157 38.1435 69.6252 38.1435 69.8931C38.1435 70.4385 38.3447 70.8283 39.0842 71.3066C39.9576 71.8715 41.2021 72.2962 42.8335 72.8313L42.9755 72.8779C44.3303 73.3217 46.0084 73.8715 47.3326 74.697C48.8191 75.6235 50.1925 77.1127 50.1925 79.4067C50.1925 80.0082 50.0262 80.587 49.8701 81.0253C49.7007 81.501 49.4718 82.0036 49.2153 82.5046C48.7012 83.5087 48.0061 84.6427 47.2419 85.7709C45.7259 88.0094 43.7987 90.4301 42.197 91.9709C40.5777 93.5287 38.1424 95.2796 35.6794 96.6456C34.439 97.3336 33.1439 97.9506 31.8952 98.4012C30.7773 98.8046 29.5726 99.1206 28.4169 99.1699C28.3881 99.1821 28.3562 99.1966 28.3229 99.2133C28.2696 99.2402 28.2198 99.2691 28.1763 99.2984L28.1541 99.3138C28.1584 99.3449 28.1634 99.368 28.1676 99.3842C28.1768 99.4204 28.1878 99.4462 28.2026 99.473C28.2479 99.555 28.3193 99.6464 28.6084 99.9561L28.6842 100.037C29.205 100.598 30.4884 101.325 32.5227 101.975C34.4601 102.594 36.7512 103.041 38.9158 103.247C39.9988 103.35 40.623 104.026 40.8872 104.391C41.1591 104.766 41.3147 105.162 41.4055 105.426C41.5814 105.935 41.7142 106.562 41.8189 107.056L41.8348 107.131C41.9779 107.805 42.1029 108.382 42.2661 108.863C42.3238 109.034 42.377 109.163 42.4228 109.259C42.5261 109.271 42.6844 109.282 42.9138 109.281C43.9091 109.277 44.9056 109.129 45.8917 109.01C47.4694 108.819 49.4219 108.584 51.4891 108.584C56.2834 108.584 59.447 110.746 62.503 112.834L62.6746 112.951C63.8055 113.723 64.9388 114.496 66.2133 115.25C69.805 117.372 72.5378 117.357 74.5344 117.346C74.6749 117.345 74.8117 117.344 74.9449 117.344C75.0771 117.344 75.2131 117.345 75.3529 117.345C77.3716 117.356 80.196 117.372 83.7869 115.25C85.0614 114.496 86.1947 113.723 87.3256 112.951L87.4972 112.834C90.5532 110.746 93.7168 108.584 98.5111 108.584C100.578 108.584 102.531 108.819 104.108 109.01L104.156 109.015C105.432 109.169 106.366 109.278 107.086 109.281C107.316 109.282 107.474 109.271 107.577 109.259C107.623 109.163 107.676 109.034 107.734 108.863C107.897 108.382 108.022 107.805 108.165 107.131L108.181 107.056C108.286 106.562 108.419 105.935 108.595 105.426C108.686 105.162 108.841 104.766 109.113 104.391C109.377 104.026 110.001 103.35 111.084 103.247C113.249 103.041 115.54 102.594 117.478 101.975C119.512 101.325 120.795 100.598 121.316 100.038L121.392 99.9562C121.681 99.6465 121.752 99.555 121.798 99.473C121.812 99.4462 121.823 99.4204 121.833 99.3842C121.837 99.368 121.842 99.3449 121.846 99.3138L121.824 99.2984C121.78 99.2691 121.731 99.2402 121.677 99.2133C121.644 99.1965 121.612 99.1821 121.583 99.1699C120.428 99.1206 119.223 98.8046 118.105 98.4012C116.856 97.9506 115.561 97.3336 114.321 96.6456C111.858 95.2796 109.423 93.5287 107.803 91.9709C106.201 90.4301 104.274 88.0094 102.758 85.7709C101.994 84.6426 101.299 83.5087 100.785 82.5046C100.528 82.0036 100.3 81.501 100.13 81.0253C99.974 80.587 99.8077 80.0082 99.8077 79.4067C99.8077 77.1127 101.181 75.6235 102.668 74.697C103.992 73.8715 105.67 73.3217 107.025 72.8779L107.167 72.8313C108.798 72.2962 110.043 71.8715 110.916 71.3066C111.655 70.8283 111.857 70.4385 111.857 69.8931C111.857 69.6252 111.685 69.157 111.094 68.6787C110.511 68.2068 109.775 67.9479 109.173 67.9479C108.511 67.9479 108.06 68.139 107.203 68.5497L107.114 68.5926C106.346 68.962 105.146 69.5394 103.568 69.5394C102.475 69.5394 101.251 69.2301 100.352 68.2771C99.463 67.3356 99.2544 66.1496 99.3274 65.1322C99.5472 62.0686 99.8077 57.7962 99.8077 54.7207C99.8077 51.3952 98.5439 45.8133 94.8167 41.1163C91.1757 36.5279 85.0892 32.6519 75.0552 32.6519C65.0202 32.6519 58.9033 36.5291 55.234 41.1221Z" fill="white"/>
</svg>
