<svg width="29" height="29" viewBox="0 0 29 29" fill="none" xmlns="http://www.w3.org/2000/svg">
<g clip-path="url(#clip0_82_12)">
<path d="M29 5.50819C27.9216 5.98125 26.7724 6.29481 25.5744 6.44706C26.8069 5.71119 27.7476 4.55481 28.1898 3.161C27.0407 3.84612 25.7719 4.33006 24.4198 4.60013C23.3287 3.43831 21.7736 2.71875 20.0771 2.71875C16.7856 2.71875 14.1357 5.39038 14.1357 8.66556C14.1357 9.13681 14.1756 9.58994 14.2734 10.0213C9.33075 9.78025 4.95719 7.41131 2.01912 3.80263C1.50619 4.69256 1.20531 5.71119 1.20531 6.80775C1.20531 8.86675 2.26562 10.6919 3.84612 11.7486C2.89094 11.7305 1.95387 11.4532 1.16 11.0164C1.16 11.0345 1.16 11.0581 1.16 11.0816C1.16 13.9707 3.22081 16.3705 5.92325 16.9233C5.43931 17.0556 4.91187 17.1191 4.3645 17.1191C3.98388 17.1191 3.59962 17.0973 3.23894 17.0176C4.00925 19.372 6.19513 21.1029 8.79425 21.1591C6.7715 22.7414 4.20319 23.6948 1.42281 23.6948C0.93525 23.6948 0.467625 23.6731 0 23.6133C2.63356 25.3116 5.75469 26.2812 9.1205 26.2812C20.0607 26.2812 26.042 17.2188 26.042 9.36337C26.042 9.10056 26.0329 8.84681 26.0203 8.59488C27.2002 7.7575 28.1916 6.71169 29 5.50819Z" fill="white"/>
</g>
<defs>
<clipPath id="clip0_82_12">
<rect width="29" height="29" fill="white"/>
</clipPath>
</defs>
</svg>
