<svg width="512" height="512" viewBox="0 0 512 512" fill="none" xmlns="http://www.w3.org/2000/svg">
<path d="M93.5629 55.271C74.9089 55.271 59.7329 70.442 59.7329 89.088C59.7329 107.734 74.9089 122.905 93.5629 122.905C112.232 122.905 127.421 107.734 127.421 89.088C127.421 70.442 112.232 55.271 93.5629 55.271ZM93.5629 102.737C86.0299 102.737 79.9019 96.614 79.9019 89.088C79.9019 81.562 86.0299 75.44 93.5629 75.44C101.111 75.44 107.253 81.563 107.253 89.089C107.253 96.615 101.111 102.737 93.5629 102.737Z" fill="#00B8CA"/>
<path d="M389.364 55.271H299.935C281.281 55.271 266.105 70.442 266.105 89.088C266.105 107.734 281.281 122.905 299.935 122.905H389.364C408.018 122.905 423.194 107.734 423.194 89.088C423.194 70.442 408.018 55.271 389.364 55.271ZM389.364 102.737H299.935C292.402 102.737 286.274 96.614 286.274 89.088C286.274 81.562 292.403 75.439 299.935 75.439H389.364C396.897 75.439 403.025 81.562 403.025 89.088C403.025 96.614 396.897 102.737 389.364 102.737Z" fill="#00B8CA"/>
<path d="M181.235 55.271C162.581 55.271 147.405 70.442 147.405 89.088C147.405 107.734 162.581 122.905 181.235 122.905C199.904 122.905 215.093 107.734 215.093 89.088C215.093 70.442 199.904 55.271 181.235 55.271ZM181.235 102.737C173.702 102.737 167.574 96.614 167.574 89.088C167.574 81.562 173.703 75.439 181.235 75.439C188.783 75.439 194.925 81.562 194.925 89.088C194.925 96.614 188.783 102.737 181.235 102.737Z" fill="#00B8CA"/>
<path d="M164.792 222.444C159.377 221.147 153.934 224.49 152.64 229.908L132.634 313.626C131.34 319.043 134.681 324.484 140.098 325.778C140.886 325.966 141.675 326.057 142.451 326.057C147.01 326.057 151.144 322.943 152.25 318.314L172.256 234.596C173.551 229.179 170.209 223.739 164.792 222.444Z" fill="#00B8CA"/>
<path d="M201.815 315.939C203.737 317.651 206.133 318.493 208.519 318.493C211.296 318.493 214.061 317.353 216.054 315.116L244.332 283.372C248.998 278.178 248.998 270.044 244.361 264.883L216.053 233.106C212.347 228.946 205.972 228.58 201.815 232.283C197.655 235.988 197.287 242.363 200.992 246.521L225.569 274.11L200.992 301.7C197.288 305.86 197.656 312.235 201.815 315.939Z" fill="#00B8CA"/>
<path d="M103.076 232.284C98.9162 228.579 92.5432 228.95 88.8382 233.107L60.5632 264.848C55.8912 270.043 55.8912 278.181 60.5312 283.34L88.8392 315.117C90.8322 317.355 93.5962 318.494 96.3742 318.494C98.7602 318.494 101.157 317.652 103.078 315.94C107.238 312.235 107.606 305.86 103.901 301.702L79.3242 274.113L103.901 246.523C107.604 242.363 107.236 235.988 103.076 232.284Z" fill="#00B8CA"/>
<path d="M489.391 339.532H485.647C483.686 333.18 481.145 327.048 478.045 321.188L480.717 318.507C484.984 314.266 487.339 308.603 487.348 302.561C487.357 296.505 485.01 290.819 480.738 286.548L475.532 281.345V66.5451C475.532 36.4661 454.306 11.9961 428.214 11.9961H47.318C21.226 11.9961 0 36.4661 0 66.5451V348.398C0 378.477 21.226 402.947 47.318 402.947H106.484C112.053 402.947 116.568 398.432 116.568 392.863C116.568 387.294 112.053 382.779 106.484 382.779H47.318C32.602 382.779 20.169 367.034 20.169 348.399V165.445H455.362V267.35C454.213 267.173 453.049 267.057 451.864 267.057C451.852 267.057 451.84 267.057 451.829 267.057C445.787 267.067 440.124 269.419 435.916 273.65L433.19 276.364C427.207 273.203 420.976 270.632 414.551 268.669V265.077C414.551 252.613 404.409 242.474 391.942 242.474H373.693C361.242 242.474 351.113 252.613 351.113 265.077V268.915C344.809 270.896 338.722 273.445 332.904 276.541L330.292 273.937C326.05 269.674 320.386 267.32 314.344 267.311C314.333 267.311 314.322 267.311 314.31 267.311C308.267 267.311 302.593 269.656 298.33 273.916L285.437 286.803C281.165 291.073 278.818 296.76 278.827 302.815C278.836 308.857 281.19 314.52 285.425 318.728L288.21 321.521C285.187 327.291 282.704 333.31 280.783 339.53H276.953C264.501 339.53 254.372 349.656 254.372 362.104V380.371C254.372 381.183 254.417 381.985 254.501 382.775H195.826C190.257 382.775 185.742 387.29 185.742 392.859C185.742 398.428 190.257 402.943 195.826 402.943H276.952H280.821C282.771 409.222 285.292 415.289 288.367 421.097L285.642 423.81C276.869 432.63 276.877 446.949 285.663 455.728L298.563 468.623C302.805 472.886 308.469 475.24 314.511 475.249H314.544C320.588 475.249 326.262 472.904 330.525 468.643L333.226 465.944C339.086 469.033 345.179 471.557 351.451 473.496V477.399C351.451 489.863 361.58 500.002 374.032 500.002H392.309C404.76 500.002 414.889 489.863 414.889 477.399V473.52C421.22 471.567 427.338 469.033 433.191 465.943L435.88 468.622C440.121 472.886 445.784 475.239 451.826 475.249H451.861C457.904 475.249 463.578 472.904 467.849 468.636L480.714 455.749C484.981 451.508 487.336 445.845 487.345 439.803C487.354 433.747 485.007 428.061 480.734 423.79L478.043 421.1C481.112 415.287 483.631 409.216 485.578 402.944H489.389C501.856 402.944 511.998 392.818 511.998 380.371V362.104C512 349.658 501.858 339.532 489.391 339.532ZM20.169 145.276V66.5451C20.169 47.9101 32.602 32.1651 47.318 32.1651H428.214C442.93 32.1651 455.363 47.9101 455.363 66.5451V145.277H20.169V145.276ZM491.831 380.373C491.831 381.654 490.691 382.777 489.39 382.777H477.858C473.156 382.777 469.078 386.026 468.028 390.609C465.85 400.114 462.109 409.128 456.908 417.403C454.403 421.388 454.988 426.576 458.318 429.903L466.478 438.058C467.088 438.668 467.178 439.396 467.178 439.776C467.177 440.23 467.059 440.889 466.47 441.473L453.586 454.38C452.975 454.99 452.246 455.082 451.862 455.082C451.861 455.082 451.86 455.082 451.86 455.082C451.402 455.082 450.741 454.963 450.15 454.368L441.96 446.212C438.629 442.895 433.451 442.32 429.474 444.82C421.187 450.033 412.135 453.78 402.568 455.957C397.979 457.003 394.722 461.083 394.722 465.791V477.402C394.722 478.698 393.595 479.836 392.311 479.836H374.034C372.749 479.836 371.622 478.699 371.622 477.402V465.762C371.622 461.05 368.358 456.965 363.762 455.926C354.317 453.79 345.281 450.049 336.907 444.809C335.257 443.776 333.403 443.272 331.56 443.272C328.955 443.272 326.373 444.279 324.428 446.225L316.269 454.38C315.658 454.99 314.929 455.082 314.545 455.082C314.544 455.082 314.543 455.082 314.542 455.082C314.085 455.082 313.423 454.963 312.844 454.381L299.923 441.466C299.018 440.562 299.028 438.96 299.911 438.072L308.1 429.916C311.446 426.584 312.031 421.378 309.51 417.386C304.301 409.138 300.555 400.13 298.375 390.612C297.325 386.029 293.247 382.779 288.544 382.779H276.954C275.647 382.779 274.542 381.678 274.542 380.375V362.108C274.542 360.805 275.647 359.703 276.954 359.703H288.515C293.222 359.703 297.304 356.446 298.349 351.857C300.501 342.4 304.199 333.429 309.34 325.191C311.822 321.214 311.236 316.051 307.925 312.731L299.675 304.457C299.115 303.901 298.997 303.242 298.996 302.788C298.996 302.408 299.086 301.68 299.696 301.071L312.588 288.185C313.199 287.575 313.928 287.483 314.312 287.483H314.315C314.772 287.484 315.434 287.602 316.025 288.197L324.157 296.297C327.498 299.624 332.695 300.194 336.673 297.67C344.913 292.446 353.938 288.662 363.496 286.425C368.056 285.358 371.281 281.29 371.281 276.606V265.08C371.281 263.761 372.385 262.646 373.692 262.646H391.941C393.264 262.646 394.382 263.761 394.382 265.08V276.436C394.382 281.161 397.662 285.252 402.275 286.279C411.87 288.416 421.024 292.19 429.483 297.497C433.458 299.989 438.631 299.413 441.959 296.099L450.182 287.909C450.74 287.348 451.401 287.23 451.858 287.229H451.861C452.245 287.229 452.974 287.321 453.584 287.931L466.477 300.816C467.087 301.426 467.177 302.154 467.177 302.534C467.176 302.988 467.058 303.647 466.465 304.236L458.304 312.421C454.981 315.754 454.405 320.942 456.916 324.922C462.137 333.199 465.893 342.263 468.081 351.861C469.127 356.449 473.207 359.704 477.914 359.704H489.39C490.69 359.704 491.831 360.829 491.831 362.109V380.373Z" fill="#00B8CA"/>
<path d="M383.187 309.652C349.205 309.652 321.559 337.286 321.559 371.253C321.559 405.204 349.205 432.826 383.187 432.826C417.154 432.826 444.787 405.205 444.787 371.253C444.787 337.287 417.154 309.652 383.187 309.652ZM383.187 412.657C360.327 412.657 341.728 394.083 341.728 371.253C341.728 348.407 360.327 329.821 383.187 329.821C406.032 329.821 424.618 348.407 424.618 371.253C424.618 394.083 406.031 412.657 383.187 412.657Z" fill="#00B8CA"/>
<path d="M151.454 382.778H151.256C145.687 382.778 141.172 387.293 141.172 392.862C141.172 398.431 145.687 402.946 151.256 402.946H151.454C157.023 402.946 161.538 398.431 161.538 392.862C161.538 387.293 157.023 382.778 151.454 382.778Z" fill="#00B8CA"/>
</svg>
