<svg width="150" height="150" viewBox="0 0 150 150" fill="none" xmlns="http://www.w3.org/2000/svg">
<path d="M10.5211 46.5989C11.1236 37.3234 18.581 30.0542 27.8647 29.5943C41.3081 28.9283 60.5225 28.125 75 28.125C89.4775 28.125 108.692 28.9283 122.135 29.5943C131.419 30.0542 138.876 37.3234 139.479 46.5989C140.056 55.4856 140.625 66.4203 140.625 75C140.625 83.5797 140.056 94.5144 139.479 103.401C138.876 112.677 131.419 119.946 122.135 120.406C108.692 121.072 89.4775 121.875 75 121.875C60.5225 121.875 41.3081 121.072 27.8647 120.406C18.581 119.946 11.1236 112.677 10.5211 103.401C9.94389 94.5144 9.375 83.5797 9.375 75C9.375 66.4203 9.94389 55.4856 10.5211 46.5989Z" fill="#FC0D1B"/>
<path d="M60.9375 56.25V93.75L98.4375 75L60.9375 56.25Z" fill="white"/>
</svg>
